<svg width="40.000000" height="40.000000" viewBox="0 0 40 40" fill="none" xmlns="http://www.w3.org/2000/svg" xmlns:xlink="http://www.w3.org/1999/xlink">
	<desc>
			Created with Pixso.
	</desc>
	<defs>
		<clipPath id="clip2_1">
			<rect id="svg" width="40.000000" height="40.000000" fill="white" fill-opacity="0"/>
		</clipPath>
	</defs>
	<g clip-path="url(#clip2_1)">
		<path id="path" d="M0 0C13.2 0 26.4 0 40 0C40 13.2 40 26.4 40 40C26.8 40 13.6 40 0 40C0 26.8 0 13.6 0 0Z" fill="#31595A" fill-opacity="1.000000" fill-rule="nonzero"/>
		<path id="path" d="M15.15 13.28C15.71 13.32 16.19 13.44 16.72 13.62C16.84 13.66 16.84 13.66 16.96 13.71C20.23 14.84 23.04 16.62 25.62 18.9C25.69 18.96 25.75 19.02 25.82 19.08C26.15 19.36 26.44 19.65 26.72 19.98C26.89 20.18 27.07 20.37 27.25 20.57C28.58 22.02 28.58 22.02 28.25 22.57C28.06 22.92 27.92 23.28 27.81 23.67C27.78 23.75 27.76 23.84 27.73 23.93C27.51 24.72 27.44 25.47 27.43 26.29C27.43 26.41 27.42 26.54 27.42 26.66C27.41 26.99 27.41 27.32 27.4 27.65C27.39 27.98 27.39 28.32 27.38 28.65C27.21 29.89 27.21 29.89 27.67 30.73C28 30.84 28.34 30.96 28.67 31.09C29.15 31.04 29.6 30.96 30.07 30.85C30.18 30.85 30.28 30.85 30.39 30.85C30.39 30.79 30.38 30.73 30.38 30.67C30.38 30.03 30.38 29.39 30.38 28.75C30.38 28.51 30.38 28.27 30.37 28.03C30.37 27.69 30.37 27.35 30.37 27C30.37 26.84 30.37 26.84 30.37 26.68C30.37 25.68 30.46 24.71 30.8 23.75C30.82 23.69 30.84 23.62 30.86 23.55C31.09 22.86 31.43 22.31 32.03 21.87C33.73 22.21 34.07 25.69 34.14 27.1C33.88 27.1 33.62 27.1 33.35 27.1C33.12 28.82 33.12 28.82 33.75 29.84C34.32 29.87 34.82 29.79 35.39 29.66C35.62 29.6 35.62 29.6 35.85 29.6C35.85 28.87 35.84 28.13 35.83 27.4C35.83 27.05 35.82 26.71 35.82 26.37C35.82 25.98 35.81 25.58 35.81 25.19C35.81 25.01 35.81 25.01 35.81 24.82C35.78 22.93 35.32 20.96 33.59 19.92C33.51 19.87 33.43 19.81 33.35 19.76C33.82 19.76 33.82 19.76 34.02 19.9C34.29 20.07 34.56 20.23 34.84 20.39C34.84 20.44 34.84 20.49 34.84 20.54C34.92 20.54 34.99 20.54 35.07 20.54C35.12 20.59 35.17 20.64 35.22 20.69C35.43 20.9 35.64 21.1 35.86 21.3C35.92 21.36 35.99 21.42 36.06 21.48C36.25 21.65 36.25 21.65 36.56 21.79C36.62 21.88 36.62 21.88 36.69 21.96C36.99 22.32 37.31 22.62 37.68 22.91C38 23.17 38.27 23.44 38.54 23.75C38.72 23.96 38.93 24.13 39.14 24.31C43.03 27.69 40 34.6 40 39.76C21.95 39.76 21.95 39.76 21.32 39.21C21.17 39.1 21.17 39.1 21.01 38.98C21.01 38.93 21.01 38.88 21.01 38.82C20.96 38.82 20.91 38.82 20.85 38.82C20.66 38.63 20.46 38.43 20.27 38.23C20.2 38.17 20.14 38.1 20.07 38.03C19.97 37.93 19.97 37.93 19.87 37.83C19.67 37.63 19.67 37.63 19.37 37.42C19.37 37.37 19.37 37.31 19.37 37.26C19.27 37.21 19.16 37.16 19.06 37.1C18.88 36.94 18.7 36.78 18.53 36.62C18.42 36.52 18.32 36.42 18.21 36.32C18.16 36.27 18.1 36.22 18.05 36.16C17.79 35.92 17.53 35.67 17.27 35.43C17.17 35.34 17.08 35.26 16.99 35.17C16.8 34.99 16.6 34.82 16.4 34.65C16.09 34.37 15.79 34.09 15.48 33.8C15.03 33.38 14.58 32.96 14.13 32.55C13.56 32.03 12.99 31.5 12.43 30.97C12.04 30.61 11.65 30.25 11.25 29.9C11.03 29.71 10.83 29.52 10.62 29.33C10.26 29 9.9 28.67 9.53 28.35C9.42 28.26 9.31 28.16 9.2 28.07C9.03 27.92 8.86 27.78 8.69 27.64C8.2 27.24 8.2 27.24 8.2 27.03C8.1 27 7.99 26.97 7.89 26.95C7.57 26.64 7.57 26.64 7.57 26.48C7.47 26.45 7.37 26.43 7.26 26.4C7.18 26.32 7.1 26.24 7.02 26.15C6.76 25.89 6.47 25.68 6.17 25.46C6.03 25.34 5.9 25.21 5.78 25.07C5.72 25.02 5.67 24.97 5.62 24.92C5.81 24.88 5.99 24.84 6.18 24.8C6.33 24.77 6.33 24.77 6.49 24.73C6.79 24.68 6.79 24.68 7.26 24.68C7.26 23.86 7.26 23.03 7.26 22.18C6.72 22.18 6.18 22.18 5.62 22.18C5.75 19.4 6.38 16.12 8.9 14.53C9.67 14.58 10.37 14.7 11.11 14.95C11.18 14.97 11.25 14.99 11.32 15.02C11.69 15.14 11.98 15.28 12.26 15.54C12.22 15.59 12.17 15.64 12.13 15.7C11.01 17.02 10.33 18.62 10 20.31C9.96 20.46 9.96 20.46 9.92 20.61C9.8 21.24 9.36 23.97 9.94 24.21C10.39 24.38 10.87 24.31 11.32 24.21C11.56 24.21 11.79 24.21 12.03 24.21C12.02 24.13 12.02 24.06 12.02 23.97C11.96 21.95 12.07 20.16 12.89 18.28C12.92 18.18 12.96 18.09 13 18C13.45 17.01 13.45 17.01 13.82 16.64C14.25 17 14.64 17.37 15 17.81C15.05 17.88 15.11 17.95 15.17 18.02C15.99 19.05 16.65 20.14 17.23 21.32C17.27 21.39 17.31 21.47 17.35 21.55C17.48 21.84 17.61 22.13 17.73 22.42C17.76 22.49 17.79 22.56 17.83 22.64C18.51 24.2 18.61 25.59 18.56 27.28C18.56 27.51 18.55 27.75 18.55 27.98C18.54 28.55 18.53 29.12 18.51 29.68C18.62 29.72 18.73 29.76 18.85 29.79C19.22 29.92 19.56 30.07 19.92 30.23C20.43 30.19 20.93 30.13 21.44 30.03C21.64 30 21.64 30 22.03 30C22.02 29.39 22.02 28.78 22.01 28.17C22.01 27.96 22.01 27.76 22.01 27.55C22.01 25.69 21.79 23.95 21.17 22.18C20.94 21.52 21.06 21.07 21.4 20.45C21.43 20.4 21.46 20.34 21.49 20.28C21.76 19.8 22.05 19.34 22.36 18.89C22.63 18.46 22.63 18.46 22.29 18.09C22.23 18.04 22.18 17.99 22.12 17.94C21.94 17.8 21.77 17.73 21.56 17.65C21.11 18.31 20.67 18.97 20.31 19.68C20.07 19.6 20.07 19.6 19.95 19.37C19.17 17.85 18.27 16.43 17.11 15.17C16.97 15.02 16.84 14.86 16.71 14.71C16.25 14.19 15.7 13.77 15.15 13.35C15.15 13.33 15.15 13.3 15.15 13.28Z" fill="#0E272C" fill-opacity="1.000000" fill-rule="nonzero"/>
		<path id="path" d="M12.13 12.11C12.91 12.24 13.7 12.19 14.49 12.18C19.5 12.13 24.3 14.39 28.35 17.18C28.5 17.28 28.5 17.28 28.65 17.38C29.29 17.83 29.88 18.31 30.46 18.82C30.53 18.88 30.59 18.93 30.66 18.99C30.89 19.19 31.11 19.39 31.32 19.6C31.42 19.61 31.52 19.61 31.61 19.61C33.97 19.7 35.45 20.98 35.82 23.41C35.88 23.99 35.86 24.57 35.86 25.16C35.86 25.35 35.86 25.35 35.86 25.54C35.86 25.88 35.86 26.22 35.86 26.55C35.86 26.9 35.86 27.24 35.86 27.58C35.86 29.61 35.86 29.61 35.22 29.76C35.1 29.79 34.98 29.82 34.86 29.85C34.3 29.97 33.9 29.98 33.35 29.76C33.35 28.88 33.35 28.01 33.35 27.1C33.61 27.1 33.87 27.1 34.14 27.1C33.83 24.01 33.83 24.01 32.03 21.95C31.39 22.42 31.12 23.01 30.88 23.75C30.86 23.82 30.83 23.88 30.81 23.95C30.48 24.94 30.44 25.97 30.43 27C30.43 27.11 30.43 27.22 30.43 27.34C30.42 27.69 30.42 28.04 30.41 28.39C30.41 28.63 30.41 28.87 30.41 29.11C30.4 29.69 30.39 30.27 30.39 30.85C30.18 30.91 29.97 30.96 29.76 31.02C29.64 31.05 29.53 31.08 29.41 31.11C28.82 31.21 28.39 31.09 27.85 30.85C27.75 30.81 27.65 30.76 27.56 30.72C27.07 30.5 27.33 28.31 27.34 27.7C27.34 27.51 27.34 27.31 27.34 27.12C27.35 25.53 27.36 23.94 28.18 22.52C28.31 22.27 28.43 22.03 28.23 21.81C27.9 21.46 27.59 21.1 27.29 20.73C26.99 20.35 26.67 20.02 26.32 19.68C25.93 19.29 25.93 19.29 25.8 19.15C25.38 18.72 24.92 18.34 24.45 17.96C24.39 17.92 24.33 17.87 24.27 17.83C23.33 17.08 22.36 16.39 21.32 15.78C21.23 15.72 21.23 15.72 21.14 15.67C19.55 14.74 17.14 13.35 15.23 13.35C15.31 13.41 15.4 13.47 15.48 13.54C16.17 14.05 16.79 14.64 17.34 15.31C17.4 15.38 17.46 15.45 17.52 15.52C18.58 16.76 19.39 18.16 20.15 19.6C20.2 19.63 20.25 19.66 20.31 19.68C20.33 19.62 20.34 19.55 20.36 19.49C20.48 19.16 20.65 18.88 20.84 18.58C20.91 18.48 20.97 18.37 21.04 18.26C21.22 18 21.4 17.79 21.64 17.57C22.68 18.24 22.68 18.24 22.57 18.67C22.46 18.86 22.34 19.05 22.22 19.24C21.94 19.67 21.68 20.1 21.44 20.54C21.39 20.63 21.34 20.72 21.28 20.82C21.12 21.2 21.03 21.56 21.18 21.96C21.53 22.95 21.76 23.96 21.95 25C21.96 25.07 21.98 25.14 21.99 25.21C22.03 25.46 22.04 25.69 22.04 25.93C22.04 26.02 22.04 26.11 22.04 26.21C22.03 26.3 22.03 26.4 22.03 26.5C22.03 26.65 22.03 26.65 22.03 26.8C22.03 27.12 22.03 27.44 22.03 27.76C22.03 27.97 22.03 28.19 22.03 28.41C22.03 30 22.03 30 21.24 30.15C21.16 30.17 21.09 30.18 21.01 30.2C20.29 30.34 19.86 30.32 19.18 30C19.09 29.95 19.09 29.95 18.99 29.9C18.51 29.69 18.51 29.69 18.51 29.5C18.51 28.87 18.51 28.23 18.51 27.6C18.51 27.36 18.51 27.13 18.51 26.89C18.51 25.5 18.47 24.32 17.89 23.04C17.83 22.89 17.77 22.74 17.71 22.59C17.66 22.47 17.61 22.35 17.55 22.23C17.52 22.16 17.5 22.09 17.47 22.02C16.66 20.2 15.52 17.85 13.82 16.71C13.37 17.34 13.37 17.34 13.05 18.03C12.97 18.26 12.88 18.49 12.77 18.72C12.03 20.49 12.02 22.33 12.03 24.21C11.85 24.24 11.68 24.27 11.51 24.29C11.36 24.31 11.36 24.31 11.22 24.33C9.94 24.49 9.94 24.49 9.68 23.98C9.64 22.61 9.68 21.33 10 20C10.02 19.89 10.04 19.79 10.06 19.68C10.42 18.18 11.11 16.66 12.18 15.54C11.84 15.29 11.51 15.16 11.11 15.03C11.04 15 10.97 14.98 10.89 14.96C8.9 14.32 7.93 14.99 6.96 16.78C6.09 18.49 5.85 20.29 5.62 22.18C6.16 22.18 6.7 22.18 7.26 22.18C7.26 23.01 7.26 23.83 7.26 24.68C5.57 24.94 5.57 24.94 4.68 24.45C4.68 23.88 4.68 23.31 4.67 22.75C4.67 22.56 4.67 22.36 4.67 22.17C4.66 20.79 4.69 19.48 5.06 18.14C5.08 18.06 5.11 17.99 5.13 17.91C5.97 14.82 8.49 11.39 12.13 12.11Z" fill="#FCDC71" fill-opacity="1.000000" fill-rule="nonzero"/>
		<path id="path" d="M28.35 17.18C28.45 17.25 28.55 17.32 28.65 17.38C29.29 17.83 29.88 18.31 30.46 18.82C30.53 18.88 30.59 18.93 30.66 18.99C30.89 19.19 31.11 19.39 31.32 19.6C31.42 19.61 31.52 19.61 31.61 19.61C33.97 19.7 35.45 20.98 35.82 23.41C35.88 23.99 35.86 24.57 35.86 25.16C35.86 25.35 35.86 25.35 35.86 25.54C35.86 25.88 35.86 26.22 35.86 26.55C35.86 26.9 35.86 27.24 35.86 27.58C35.86 29.61 35.86 29.61 35.22 29.76C35.1 29.79 34.98 29.82 34.86 29.85C34.3 29.97 33.9 29.98 33.35 29.76C33.35 28.88 33.35 28.01 33.35 27.1C33.61 27.1 33.87 27.1 34.14 27.1C33.83 24.01 33.83 24.01 32.03 21.95C31.39 22.42 31.12 23.01 30.88 23.75C30.86 23.82 30.83 23.88 30.81 23.95C30.48 24.94 30.44 25.97 30.43 27C30.43 27.11 30.43 27.22 30.43 27.34C30.42 27.69 30.42 28.04 30.41 28.39C30.41 28.63 30.41 28.87 30.41 29.11C30.4 29.69 30.39 30.27 30.39 30.85C30.18 30.91 29.97 30.96 29.76 31.02C29.64 31.05 29.53 31.08 29.41 31.11C28.82 31.21 28.39 31.09 27.85 30.85C27.75 30.81 27.65 30.76 27.56 30.72C27.07 30.5 27.33 28.31 27.34 27.7C27.34 27.51 27.34 27.31 27.34 27.12C27.35 25.53 27.36 23.94 28.18 22.52C28.31 22.27 28.43 22.03 28.23 21.81C27.9 21.46 27.59 21.1 27.29 20.73C26.99 20.35 26.67 20.02 26.32 19.68C25.93 19.29 25.93 19.29 25.8 19.15C25.38 18.72 24.92 18.34 24.45 17.96C24.39 17.92 24.33 17.87 24.27 17.83C23.33 17.08 22.36 16.39 21.32 15.78C21.26 15.74 21.21 15.71 21.14 15.67C19.47 14.69 17.67 13.95 15.8 13.45C14.84 13.18 13.94 12.77 13.04 12.34C17.24 10.24 25.08 14.92 28.35 17.18Z" fill="#FCDD85" fill-opacity="1.000000" fill-rule="nonzero"/>
		<path id="path" d="M35.71 22.84C35.89 23.6 35.86 24.38 35.86 25.16C35.86 25.28 35.86 25.41 35.86 25.54C35.86 25.88 35.86 26.22 35.86 26.55C35.86 26.9 35.86 27.24 35.86 27.58C35.86 29.61 35.86 29.61 35.22 29.76C35.1 29.79 34.98 29.82 34.86 29.85C34.3 29.97 33.9 29.98 33.35 29.76C33.35 28.88 33.35 28.01 33.35 27.1C33.61 27.1 33.87 27.1 34.14 27.1C33.83 24.01 33.83 24.01 32.03 21.95C31.39 22.42 31.12 23.01 30.88 23.75C30.86 23.82 30.83 23.9 30.81 23.97C30.42 25.22 30.42 26.51 30.39 27.81C29.96 27.91 29.58 27.98 29.14 27.96C29.11 25.96 29.15 23.87 30.23 22.1C30.26 22.04 30.29 21.98 30.33 21.92C32.07 18.78 34.73 19.88 35.71 22.84Z" fill="#C95926" fill-opacity="1.000000" fill-rule="nonzero"/>
		<path id="path" d="M10.93 12.89C12.54 12.74 14.22 14.28 15.31 15.31C15.37 15.36 15.43 15.42 15.49 15.48C17.87 17.79 20.56 22.27 20.39 25.7C20.36 25.72 20.33 25.75 20.31 25.78C20.52 25.75 20.73 25.73 20.95 25.7C21.07 25.69 21.18 25.68 21.31 25.66C21.55 25.63 21.79 25.59 22.03 25.54C22.03 30 22.03 30 20.39 30.31C19.92 30.31 19.92 30.31 18.51 29.68C18.51 28.16 18.51 26.64 18.51 25.07C18.87 25.15 19.18 25.25 19.53 25.39C18.81 23.12 18.81 23.12 17.89 20.93C17.85 20.87 17.82 20.8 17.79 20.73C16.98 19.09 16 17.6 14.68 16.32C14.62 16.26 14.55 16.19 14.49 16.12C13.34 15.01 11.94 14.09 10.31 13.98C10.31 13.95 10.31 13.93 10.31 13.9C10.62 13.9 10.93 13.9 11.25 13.9C11.28 13.07 11.28 13.07 10.93 12.89Z" fill="#FCE173" fill-opacity="1.000000" fill-rule="nonzero"/>
		<path id="path" d="M14.58 12.96C14.76 13.05 14.76 13.05 14.97 13.12C15.19 13.22 15.3 13.33 15.46 13.51C15.73 13.75 16 13.98 16.27 14.21C16.66 14.55 17.01 14.91 17.34 15.31C17.43 15.41 17.43 15.41 17.52 15.52C18.58 16.77 19.39 18.16 20.15 19.6C20.2 19.63 20.25 19.66 20.31 19.68C20.33 19.62 20.34 19.55 20.36 19.49C20.48 19.16 20.65 18.88 20.84 18.58C20.91 18.48 20.97 18.37 21.04 18.26C21.22 18 21.4 17.79 21.64 17.57C22.68 18.24 22.68 18.24 22.57 18.67C22.46 18.86 22.34 19.05 22.22 19.24C21.94 19.67 21.68 20.1 21.44 20.54C21.39 20.63 21.34 20.72 21.28 20.82C21.12 21.2 21.03 21.56 21.18 21.96C21.59 23.12 21.87 24.32 22.03 25.54C21.72 25.68 21.43 25.74 21.09 25.79C21 25.8 20.9 25.81 20.81 25.83C20.54 25.85 20.54 25.85 20.15 25.85C20.2 25.8 20.25 25.75 20.31 25.7C20.32 25.19 20.27 24.73 20.15 24.23C20.13 24.16 20.11 24.09 20.09 24.01C19.27 20.77 17.59 17.82 15.31 15.39C15.22 15.29 15.14 15.2 15.05 15.11C13.4 13.49 10.5 11.91 8.28 13.35C8 13.57 7.75 13.81 7.5 14.06C7.41 14.13 7.41 14.13 7.33 14.2C6.5 14.97 6.02 16.02 5.54 17.03C5.46 16.71 5.46 16.71 5.61 16.44C5.7 16.23 5.8 16.03 5.89 15.82C7.5 12.2 11.23 11.3 14.58 12.96Z" fill="#F45437" fill-opacity="1.000000" fill-rule="nonzero"/>
		<path id="path" d="M15.15 13.28C15.71 13.32 16.19 13.44 16.72 13.62C16.8 13.65 16.88 13.68 16.96 13.71C20.23 14.84 23.04 16.62 25.62 18.9C25.69 18.96 25.75 19.02 25.82 19.08C26.15 19.36 26.44 19.65 26.72 19.98C26.89 20.18 27.07 20.37 27.25 20.57C28.57 22.01 28.57 22.01 28.25 22.58C28.08 22.88 27.94 23.19 27.81 23.51C27.65 23.51 27.65 23.51 27.49 23.31C26.35 21.84 25.18 20.47 23.75 19.29C23.2 18.83 23.2 18.83 23.2 18.67C23.02 18.62 22.84 18.56 22.65 18.51C22.57 18.41 22.57 18.41 22.5 18.3C22.23 18.01 21.98 17.85 21.64 17.65C21.31 17.94 21.1 18.3 20.88 18.67C20.85 18.73 20.81 18.79 20.77 18.86C20.6 19.13 20.45 19.4 20.31 19.68C20.07 19.6 20.07 19.6 19.95 19.37C19.17 17.85 18.27 16.43 17.11 15.17C16.97 15.02 16.84 14.86 16.71 14.71C16.25 14.19 15.7 13.77 15.15 13.35C15.15 13.33 15.15 13.3 15.15 13.28Z" fill="#517EB5" fill-opacity="1.000000" fill-rule="nonzero"/>
		<path id="path" d="M12.81 15.76C13.04 15.93 13.23 16.12 13.43 16.32C13.54 16.4 13.64 16.48 13.75 16.56C13.67 16.84 13.6 17.01 13.45 17.26C13.24 17.64 13.06 18.03 12.9 18.44C12.83 18.6 12.77 18.76 12.69 18.91C12.01 20.61 12.02 22.42 12.03 24.21C11.85 24.24 11.68 24.27 11.51 24.29C11.36 24.31 11.36 24.31 11.22 24.33C9.94 24.49 9.94 24.49 9.68 23.98C9.64 22.61 9.68 21.33 10 20C10.02 19.89 10.04 19.79 10.06 19.68C10.31 18.67 11.45 14.97 12.81 15.76Z" fill="#E0A73F" fill-opacity="1.000000" fill-rule="nonzero"/>
		<path id="path" d="M13.82 12.57C16.18 12.39 18.67 13.3 20.78 14.29C20.95 14.37 21.11 14.45 21.28 14.52C21.64 14.68 21.64 14.68 21.64 14.84C21.7 14.86 21.77 14.88 21.84 14.9C23.28 15.42 24.62 16.57 25.76 17.58C25.94 17.74 26.13 17.89 26.32 18.03C26.85 18.47 27.34 18.96 27.82 19.45C27.96 19.59 27.96 19.59 28.09 19.73C28.75 20.38 28.75 20.38 28.75 20.62C28.85 20.67 28.95 20.72 29.06 20.78C29.3 21.02 29.19 21.17 29.01 21.43C28.96 21.49 28.91 21.55 28.86 21.62C28.81 21.68 28.76 21.74 28.71 21.81C28.59 21.95 28.59 21.95 28.35 21.95C27.99 21.55 27.63 21.15 27.29 20.73C26.99 20.35 26.67 20.02 26.32 19.68C25.93 19.29 25.93 19.29 25.8 19.15C25.38 18.72 24.92 18.34 24.45 17.96C24.39 17.92 24.33 17.87 24.27 17.83C23.33 17.08 22.36 16.39 21.32 15.78C21.26 15.74 21.21 15.71 21.14 15.67C19.47 14.69 17.67 13.94 15.8 13.45C13.82 12.89 13.82 12.89 13.82 12.57Z" fill="#F3F6F2" fill-opacity="1.000000" fill-rule="nonzero"/>
		<path id="path" d="M28.04 23.12C28.13 23.39 28.13 23.6 28.12 23.88C28.12 23.97 28.12 24.06 28.12 24.16C28.12 24.23 28.12 24.3 28.12 24.37C28.33 24.37 28.53 24.37 28.75 24.37C28.75 24.16 28.75 23.96 28.75 23.75C28.95 23.75 29.16 23.75 29.37 23.75C29.45 23.59 29.52 23.44 29.6 23.28C29.68 23.43 29.68 23.43 29.62 23.66C29.24 25.08 29.18 26.5 29.14 27.96C29.75 27.89 29.75 27.89 30.39 27.81C30.39 30.85 30.39 30.85 29.06 31.17C28.56 31.1 28.28 31.05 27.85 30.85C27.75 30.81 27.65 30.76 27.56 30.72C27.07 30.5 27.33 28.31 27.34 27.7C27.34 27.51 27.34 27.31 27.34 27.12C27.37 23.12 27.37 23.12 28.04 23.12Z" fill="#FBCC63" fill-opacity="1.000000" fill-rule="nonzero"/>
		<path id="path" d="M11.01 14.92C11.01 14.97 11.01 15.02 11.01 15.07C11.09 15.11 11.09 15.11 11.17 15.15C11.11 15.17 11.06 15.2 11 15.22C8.32 16.4 7.62 19.58 7.26 22.18C6.72 22.18 6.18 22.18 5.62 22.18C5.76 19.08 6.81 13.45 11.01 14.92Z" fill="#AD211B" fill-opacity="1.000000" fill-rule="nonzero"/>
		<path id="path" d="M10.93 12.89C12.54 12.74 14.22 14.28 15.31 15.31C15.37 15.36 15.43 15.42 15.49 15.48C17.02 16.97 19.62 20.24 19.37 22.5C19.27 22.52 19.16 22.55 19.06 22.57C18.98 22.7 18.9 22.83 18.82 22.96C18.59 22.73 18.51 22.42 18.39 22.11C17.55 19.95 16.37 17.94 14.68 16.32C14.62 16.26 14.55 16.19 14.48 16.13C13.36 15 11.93 14.09 10.31 13.98C10.31 13.95 10.31 13.93 10.31 13.9C10.62 13.9 10.93 13.9 11.25 13.9C11.28 13.07 11.28 13.07 10.93 12.89Z" fill="#FAEA80" fill-opacity="1.000000" fill-rule="nonzero"/>
		<path id="path" d="M14.06 15.62C14.12 15.67 14.18 15.72 14.24 15.77C14.55 16.03 14.82 16.31 15.08 16.62C15.19 16.74 15.29 16.86 15.4 16.97C17.19 18.83 19.53 22.73 19.53 25.39C18.53 25.15 18.53 25.15 18.47 24.9C17.84 22.27 16.55 19.68 14.76 17.65C14.68 17.55 14.68 17.55 14.6 17.45C14.2 16.98 13.75 16.62 13.25 16.26C13.04 16.09 13.04 16.09 12.89 15.85C11.69 15.12 10.37 14.72 8.98 14.6C8.98 14.35 9.21 14.35 9.43 14.26C9.51 14.22 9.6 14.19 9.68 14.15C11.24 13.53 12.89 14.66 14.06 15.62Z" fill="#37BD69" fill-opacity="1.000000" fill-rule="nonzero"/>
		<path id="path" d="M14.58 12.96C14.76 13.05 14.76 13.05 14.97 13.12C15.19 13.22 15.3 13.33 15.46 13.51C15.73 13.75 16 13.98 16.27 14.21C16.66 14.55 17.01 14.91 17.34 15.31C17.43 15.41 17.43 15.41 17.52 15.52C18.56 16.73 19.39 18.09 20.07 19.53C19.76 19.6 19.76 19.6 19.61 19.3C19.48 19 19.48 19 19.37 18.9C19.34 18.72 19.32 18.54 19.29 18.35C19.19 18.3 19.09 18.25 18.98 18.2C18.95 18.12 18.92 18.04 18.89 17.96C18.72 17.61 18.52 17.34 18.28 17.03C18.28 16.97 18.28 16.92 18.28 16.87C18.15 16.84 18.02 16.82 17.89 16.79C17.89 16.74 17.89 16.69 17.89 16.64C17.83 16.64 17.78 16.64 17.73 16.64C17.73 16.58 17.73 16.53 17.73 16.48C17.65 16.45 17.57 16.43 17.5 16.4C17.39 16.35 17.29 16.3 17.18 16.25C16.6 16.16 16.6 16.16 16.56 16.56C16.21 16.38 16.05 16.2 15.79 15.92C15.71 15.83 15.62 15.73 15.54 15.64C15.46 15.56 15.39 15.47 15.31 15.39C13.72 13.65 10.8 11.97 8.47 13.23C8.11 13.46 7.8 13.76 7.5 14.06C7.41 14.13 7.41 14.13 7.33 14.2C6.5 14.97 6.02 16.02 5.54 17.03C5.46 16.71 5.46 16.71 5.61 16.44C5.7 16.23 5.8 16.03 5.89 15.82C7.5 12.2 11.23 11.3 14.58 12.96Z" fill="#F36045" fill-opacity="1.000000" fill-rule="nonzero"/>
		<path id="path" d="M33.81 22.34C34.43 23.55 34.62 24.63 34.61 25.97C34.61 26.07 34.61 26.17 34.61 26.28C34.61 26.53 34.61 26.78 34.6 27.03C35.02 26.95 35.43 26.87 35.85 26.79C35.85 29.6 35.85 29.6 34.53 29.92C34.04 29.95 33.8 29.94 33.35 29.76C33.35 28.88 33.35 28.01 33.35 27.1C33.61 27.1 33.87 27.1 34.14 27.1C33.93 25.22 33.52 23.6 32.42 22.03C32.37 21.92 32.31 21.82 32.26 21.71C32.98 21.48 33.44 21.73 33.81 22.34Z" fill="#FAC858" fill-opacity="1.000000" fill-rule="nonzero"/>
		<path id="path" d="M23.82 17.57C23.85 17.62 23.87 17.68 23.9 17.73C24.08 17.78 24.26 17.83 24.45 17.89C24.79 18.18 25.13 18.48 25.47 18.77C25.59 18.88 25.71 18.98 25.84 19.09C26.16 19.37 26.45 19.65 26.72 19.98C26.89 20.18 27.07 20.37 27.25 20.57C28.57 22.01 28.57 22.01 28.25 22.58C28.08 22.88 27.94 23.19 27.81 23.51C27.65 23.51 27.65 23.51 27.49 23.31C26.35 21.84 25.18 20.47 23.75 19.29C23.2 18.83 23.2 18.83 23.2 18.67C23.02 18.62 22.84 18.56 22.65 18.51C22.59 18.44 22.54 18.37 22.48 18.3C22.31 18.1 22.14 17.91 21.95 17.73C22.71 17.61 22.71 17.61 22.96 18.12C23.07 18.02 23.17 17.91 23.28 17.81C23.33 17.81 23.38 17.81 23.43 17.81C23.43 17.86 23.43 17.91 23.43 17.96C23.48 17.96 23.54 17.96 23.59 17.96C23.64 17.65 23.64 17.65 23.43 17.57C23.51 17.5 23.51 17.5 23.82 17.57Z" fill="#4C79AD" fill-opacity="1.000000" fill-rule="nonzero"/>
		<path id="path" d="M0 39.76C13.2 39.76 26.4 39.76 40 39.76C40 39.84 40 39.92 40 40C26.8 40 13.6 40 0 40C0 39.92 0 39.84 0 39.76Z" fill="#A77A6A" fill-opacity="1.000000" fill-rule="nonzero"/>
		<path id="path" d="M28.35 17.18C28.35 17.26 28.35 17.34 28.35 17.42C28.28 17.42 28.2 17.42 28.12 17.42C28.12 17.37 28.12 17.31 28.12 17.26C27.99 17.23 27.86 17.21 27.73 17.18C27.73 17.13 27.73 17.08 27.73 17.03C27.65 17.03 27.57 17.03 27.5 17.03C27.5 16.97 27.5 16.92 27.5 16.87C27.34 16.87 27.19 16.87 27.03 16.87C27 16.79 26.97 16.72 26.95 16.64C26.72 16.56 26.48 16.48 26.25 16.4C26.25 16.27 26.25 16.14 26.25 16.01C26.12 16.01 25.99 16.01 25.85 16.01C25.79 15.96 25.72 15.91 25.64 15.86C25.41 15.71 25.26 15.65 25 15.62C24.92 15.54 24.84 15.47 24.76 15.39C24.63 15.33 24.5 15.28 24.37 15.23C24.32 15.18 24.27 15.13 24.21 15.07C24.14 15.07 24.06 15.07 23.99 15.08C23.84 15.08 23.84 15.08 23.69 15.08C23.59 15.08 23.49 15.08 23.39 15.08C23.12 15.07 23.12 15.07 22.81 15C22.81 15.12 22.81 15.25 22.81 15.39C22.51 15.31 22.31 15.22 22.05 15.07C21.97 15.03 21.89 14.98 21.81 14.94C21.64 14.84 21.64 14.84 21.64 14.68C21.47 14.64 21.47 14.64 21.29 14.59C21.01 14.51 20.76 14.41 20.5 14.27C18.58 13.28 16.2 12.58 14.04 12.66C13.63 12.65 13.38 12.54 13.04 12.34C17.25 10.24 25.07 14.93 28.35 17.18Z" fill="#F8DF94" fill-opacity="1.000000" fill-rule="nonzero"/>
		<path id="path" d="M23.2 18.67C23.2 18.72 23.2 18.77 23.2 18.82C23.3 18.87 23.4 18.93 23.51 18.98C23.65 19.1 23.79 19.22 23.92 19.34C23.99 19.4 24.06 19.47 24.13 19.53C24.21 19.61 24.21 19.61 24.29 19.68C24.23 19.78 24.16 19.88 24.09 19.98C23.81 20.4 23.54 20.82 23.28 21.25C23.23 21.33 23.18 21.41 23.12 21.49C22.8 22.02 22.54 22.57 22.31 23.14C22.28 23.21 22.26 23.27 22.23 23.34C22.07 23.76 21.96 24.17 21.87 24.6C21.79 24.6 21.79 24.6 21.74 24.33C21.56 23.43 21.32 22.58 21.01 21.71C21.05 21.22 21.17 20.88 21.4 20.45C21.45 20.37 21.45 20.37 21.5 20.28C22.56 18.35 22.56 18.35 23.2 18.67Z" fill="#9F252B" fill-opacity="1.000000" fill-rule="nonzero"/>
		<path id="path" d="M22.03 25.54C22.03 30 22.03 30 20.7 30.23C20.54 30.2 20.39 30.18 20.23 30.15C20.23 25.54 20.23 25.54 22.03 25.54Z" fill="#F6BD47" fill-opacity="1.000000" fill-rule="nonzero"/>
		<path id="path" d="M13.35 16.25C13.75 16.54 13.75 16.54 13.67 16.87C13.6 17 13.53 17.13 13.45 17.26C13.24 17.64 13.06 18.03 12.9 18.44C12.84 18.6 12.77 18.75 12.69 18.91C12.53 19.34 12.43 19.77 12.33 20.22C12.31 20.31 12.29 20.4 12.27 20.49C12.16 20.95 12.07 21.4 12.03 21.87C11.45 21.95 11.45 21.95 10.85 22.03C10.89 20.93 11.93 15.61 13.35 16.25Z" fill="#A23829" fill-opacity="1.000000" fill-rule="nonzero"/>
		<path id="path" d="M17.03 14.92C17.09 14.95 17.16 14.99 17.23 15.03C17.33 15.08 17.42 15.13 17.52 15.18C17.63 15.24 17.73 15.3 17.84 15.35C18.08 15.48 18.32 15.6 18.56 15.73C19.59 16.26 20.59 16.84 21.56 17.5C21.4 17.97 21.1 18.35 20.82 18.75C20.62 19.06 20.46 19.36 20.31 19.68C20.07 19.6 20.07 19.6 19.95 19.37C19.15 17.81 18.21 16.37 17.03 15.07C17.03 15.02 17.03 14.97 17.03 14.92Z" fill="#0B0B0F" fill-opacity="1.000000" fill-rule="nonzero"/>
		<path id="path" d="M12.81 15.78C12.73 16.25 12.73 16.25 12.62 16.39C12.29 16.84 12.03 17.3 11.79 17.81C11.74 17.81 11.69 17.81 11.64 17.81C11.62 17.89 11.6 17.97 11.58 18.05C11.5 18.36 11.4 18.67 11.29 18.98C10.97 19.93 10.75 20.88 10.62 21.87C10.57 21.87 10.52 21.87 10.46 21.87C10.46 21.92 10.46 21.97 10.46 22.03C10.23 22 10 21.97 9.76 21.95C9.77 22.25 9.78 22.56 9.79 22.87C9.8 22.95 9.8 23.04 9.8 23.13C9.81 23.21 9.81 23.3 9.81 23.38C9.82 23.46 9.82 23.54 9.82 23.62C9.83 23.84 9.83 23.84 9.92 24.14C9.76 24.14 9.76 24.14 9.68 23.98C9.64 22.61 9.68 21.33 10 20C10.02 19.89 10.04 19.79 10.06 19.68C10.3 18.7 11.49 14.9 12.81 15.78Z" fill="#CA883D" fill-opacity="1.000000" fill-rule="nonzero"/>
		<path id="path" d="M32.42 21.95C33.65 23.42 34.05 25.24 34.14 27.1C33.28 27.1 33.28 27.1 33.19 26.74C32.69 24.54 32.69 24.54 31.64 22.57C31.64 22.52 31.64 22.47 31.64 22.42C31.58 22.39 31.53 22.37 31.48 22.34C32.03 21.87 32.03 21.87 32.42 21.95Z" fill="#33778D" fill-opacity="1.000000" fill-rule="nonzero"/>
		<path id="path" d="M27.34 27.5C27.49 27.55 27.65 27.6 27.81 27.65C28 27.71 28.2 27.77 28.4 27.82C29.86 28.29 28.98 28.28 28.98 31.01C29.19 30.98 29.39 30.96 29.6 30.93C29.06 31.29 28.63 31.15 28.09 30.94C27.98 30.89 27.88 30.85 27.77 30.81C26.42 30.26 27.34 30.46 27.34 27.5Z" fill="#FDDB67" fill-opacity="1.000000" fill-rule="nonzero"/>
		<path id="path" d="M29.37 24.21C29.45 24.37 29.45 24.37 29.42 24.59C29.4 24.68 29.39 24.78 29.37 24.88C29.36 24.97 29.35 25.07 29.33 25.16C29.32 25.26 29.31 25.36 29.29 25.46C29.28 25.56 29.26 25.65 29.25 25.75C29.2 26.19 29.19 26.63 29.17 27.07C29.17 27.15 29.16 27.24 29.16 27.33C29.15 27.54 29.14 27.75 29.14 27.96C29.75 27.89 29.75 27.89 30.39 27.81C30.39 30.85 30.39 30.85 29.6 31.01C29.4 31.02 29.19 31.02 28.98 31.01C28.98 30.3 28.97 29.58 28.97 28.87C28.97 28.63 28.97 28.39 28.97 28.14C28.97 27.79 28.96 27.45 28.96 27.1C28.96 26.99 28.96 26.88 28.96 26.77C28.96 26.62 28.96 26.62 28.96 26.46C28.96 26.37 28.96 26.28 28.96 26.19C28.98 25.91 29.05 25.66 29.14 25.39C29.16 25.22 29.17 25.05 29.18 24.88C29.19 24.8 29.2 24.72 29.2 24.63C29.21 24.57 29.21 24.51 29.21 24.45C29.27 24.37 29.32 24.29 29.37 24.21Z" fill="#F6B643" fill-opacity="1.000000" fill-rule="nonzero"/>
		<path id="path" d="M31.64 22.42C32.5 23.69 32.5 23.69 32.5 24.37C32.31 24.4 32.13 24.42 31.95 24.45C31.95 24.55 31.95 24.64 31.95 24.75C31.95 25.07 31.95 25.07 31.87 25.31C31.82 25.31 31.77 25.31 31.71 25.31C31.71 25.36 31.71 25.41 31.71 25.46C31.77 25.46 31.82 25.46 31.87 25.46C31.87 25.52 31.87 25.57 31.87 25.62C31.77 25.62 31.66 25.62 31.56 25.62C31.56 25.57 31.56 25.52 31.56 25.46C31.51 25.46 31.45 25.46 31.4 25.46C31.4 25.52 31.4 25.57 31.4 25.62C31.2 25.62 30.99 25.62 30.78 25.62C30.72 25.96 30.67 26.29 30.62 26.64C30.58 26.67 30.58 26.67 30.54 26.71C30.54 26.78 30.54 26.85 30.54 26.93C30.55 28.24 30.55 29.54 30.46 30.85C30.44 30.85 30.41 30.85 30.39 30.85C30.38 30.15 30.38 29.45 30.38 28.75C30.38 28.51 30.38 28.27 30.37 28.03C30.37 27.69 30.37 27.35 30.37 27C30.37 26.9 30.37 26.79 30.37 26.68C30.37 25.67 30.47 24.7 30.81 23.74C30.83 23.67 30.85 23.6 30.87 23.53C31.26 22.42 31.26 22.42 31.64 22.42Z" fill="#151F24" fill-opacity="1.000000" fill-rule="nonzero"/>
		<path id="path" d="M5.54 22.03C5.57 22.08 5.59 22.13 5.62 22.18C6.16 22.18 6.7 22.18 7.26 22.18C7.26 23.01 7.26 23.83 7.26 24.68C6.59 24.79 6.05 24.86 5.39 24.84C5.46 24.8 5.46 24.8 5.54 24.76C5.54 23.86 5.54 22.96 5.54 22.03Z" fill="#F4BE47" fill-opacity="1.000000" fill-rule="nonzero"/>
		<path id="path" d="M21.77 17.67C22.19 17.89 22.7 18.17 22.57 18.67C22.46 18.86 22.34 19.05 22.22 19.24C21.77 19.94 21.38 20.66 21.01 21.4C20.7 20.79 20.24 16.96 21.77 17.67Z" fill="#C77A3D" fill-opacity="1.000000" fill-rule="nonzero"/>
		<path id="path" d="M34.53 24.84C34.55 24.84 34.58 24.84 34.6 24.84C34.6 25.56 34.6 26.28 34.6 27.03C35.22 26.91 35.22 26.91 35.85 26.79C35.85 29.6 35.85 29.6 34.45 29.92C34 29.47 34.42 27.14 34.45 26.5C34.46 26.34 34.46 26.18 34.47 26.02C34.49 25.62 34.51 25.23 34.53 24.84Z" fill="#F4B342" fill-opacity="1.000000" fill-rule="nonzero"/>
		<path id="path" d="M1.87 39.37C2.08 39.37 2.28 39.37 2.5 39.37C2.5 39.42 2.5 39.47 2.5 39.53C2.59 39.53 2.69 39.53 2.79 39.53C5.13 39.52 7.48 39.52 9.83 39.52C10.96 39.52 12.1 39.52 13.23 39.51C14.22 39.51 15.21 39.51 16.2 39.51C16.72 39.51 17.25 39.51 17.77 39.51C18.26 39.51 18.76 39.51 19.25 39.51C19.43 39.51 19.61 39.51 19.79 39.51C20.04 39.51 20.29 39.51 20.53 39.51C20.6 39.51 20.68 39.51 20.75 39.51C21.17 39.51 21.54 39.56 21.95 39.68C21.95 39.71 21.95 39.73 21.95 39.76C14.7 39.76 7.46 39.76 0 39.76C0 39.73 0 39.71 0 39.68C0.51 39.68 1.03 39.68 1.56 39.68C1.56 39.63 1.56 39.58 1.56 39.53C1.66 39.55 1.76 39.58 1.87 39.6C1.87 39.53 1.87 39.45 1.87 39.37Z" fill="#42494A" fill-opacity="1.000000" fill-rule="nonzero"/>
		<path id="path" d="M13.04 12.34C13.59 12.5 13.59 12.5 13.67 12.73C13.82 12.78 13.98 12.83 14.14 12.89C14.19 12.94 14.24 12.99 14.29 13.04C14.5 13.12 14.7 13.2 14.92 13.28C15.07 13.75 15.07 13.75 15 14.06C15.13 14.44 15.13 14.44 15.62 14.37C15.85 14.71 15.67 14.94 15.54 15.31C15.39 15.23 15.39 15.23 15.31 15C15.18 15 15.05 15 14.92 15C14.85 14.94 14.78 14.88 14.7 14.82C14.19 14.41 13.67 14.02 13.12 13.67C13.12 13.59 13.12 13.51 13.12 13.44C13.12 13.34 13.12 13.24 13.12 13.13C13.13 13.04 13.13 12.94 13.13 12.84C13.13 12.57 13.13 12.57 13.04 12.34ZM15 14.21C15.07 14.37 15.07 14.37 15.07 14.37L15 14.21Z" fill="#F45E4D" fill-opacity="1.000000" fill-rule="nonzero"/>
		<path id="path" d="M12.03 21.87C12.03 22.64 12.03 23.42 12.03 24.21C10.25 24.47 10.25 24.47 9.92 24.14C10.16 24.18 10.41 24.22 10.65 24.26C10.75 24.27 10.75 24.27 10.85 24.29C10.84 24.21 10.83 24.12 10.81 24.03C10.77 23.62 10.79 23.22 10.81 22.81C10.81 22.73 10.82 22.66 10.82 22.58C10.87 21.74 11.15 21.87 12.03 21.87Z" fill="#CA8F37" fill-opacity="1.000000" fill-rule="nonzero"/>
		<path id="path" d="M21.87 13.12C22.08 13.12 22.28 13.12 22.5 13.12C22.5 13.27 22.5 13.43 22.5 13.59C22.55 13.59 22.6 13.59 22.65 13.59C22.68 13.67 22.7 13.74 22.73 13.82C22.86 13.87 22.99 13.93 23.12 13.98C23.12 13.9 23.12 13.82 23.12 13.75C23.33 13.75 23.53 13.75 23.75 13.75C23.75 13.9 23.75 14.05 23.75 14.21C23.8 14.21 23.85 14.21 23.9 14.21C23.95 14.29 24 14.37 24.06 14.45C24.17 14.49 24.17 14.49 24.27 14.54C24.81 14.76 25.3 14.99 25.78 15.31C25.93 15.4 26.08 15.49 26.23 15.58C26.7 15.87 27.16 16.17 27.63 16.46C27.7 16.51 27.77 16.55 27.84 16.6C27.9 16.64 27.97 16.68 28.03 16.73C28.09 16.76 28.15 16.8 28.21 16.84C28.35 16.95 28.35 16.95 28.51 17.18C28.28 17.18 28.28 17.18 27.96 16.98C25.79 15.58 23.53 14.29 21.09 13.43C21.36 13.16 21.58 13.24 21.87 13.43C21.87 13.33 21.87 13.23 21.87 13.12Z" fill="#2C514F" fill-opacity="1.000000" fill-rule="nonzero"/>
		<path id="path" d="M21.17 13.51C21.69 13.61 22.14 13.76 22.63 13.97C22.7 14.01 22.77 14.04 22.84 14.07C28.35 16.5 28.35 16.5 28.35 17.42C28.28 17.42 28.2 17.42 28.12 17.42C28.12 17.37 28.12 17.31 28.12 17.26C27.99 17.23 27.86 17.21 27.73 17.18C27.73 17.13 27.73 17.08 27.73 17.03C27.65 17.03 27.57 17.03 27.5 17.03C27.5 16.97 27.5 16.92 27.5 16.87C27.34 16.87 27.19 16.87 27.03 16.87C27 16.79 26.97 16.72 26.95 16.64C26.72 16.56 26.48 16.48 26.25 16.4C26.25 16.27 26.25 16.14 26.25 16.01C26.12 16.01 25.99 16.01 25.85 16.01C25.79 15.96 25.72 15.91 25.64 15.86C25.41 15.71 25.26 15.65 25 15.62C24.92 15.54 24.84 15.47 24.76 15.39C24.63 15.33 24.5 15.28 24.37 15.23C24.24 15.15 24.11 15.07 23.98 15C23.9 14.97 23.82 14.94 23.75 14.92C23.71 14.84 23.71 14.84 23.67 14.76C23.5 14.69 23.5 14.69 23.33 14.63C22.89 14.45 22.45 14.27 22.02 14.08C21.94 14.04 21.87 14.01 21.79 13.98C21.25 13.75 21.25 13.75 21.17 13.51Z" fill="#F2EAA9" fill-opacity="1.000000" fill-rule="nonzero"/>
		<path id="path" d="M33.51 21.95C33.54 22.18 33.56 22.41 33.59 22.65C33.64 22.65 33.69 22.65 33.75 22.65C34.05 23.52 34.07 24.39 34.06 25.31C33.9 25.31 33.9 25.31 33.84 25.06C33.53 23.95 33.08 22.97 32.42 22.03C32.37 21.92 32.31 21.82 32.26 21.71C32.79 21.54 33.08 21.6 33.51 21.95Z" fill="#D6D9C5" fill-opacity="1.000000" fill-rule="nonzero"/>
		<path id="path" d="M22.65 18.51C22.68 18.56 22.7 18.61 22.73 18.67C22.78 18.67 22.83 18.67 22.89 18.67C22.96 18.9 22.96 18.9 22.5 19.92C22.44 19.92 22.39 19.92 22.34 19.92C22.31 20.03 22.28 20.15 22.25 20.27C22.13 20.66 21.96 20.92 21.71 21.25C21.48 21.69 21.44 22.08 21.4 22.57C20.76 21.93 21.03 21.13 21.4 20.45C21.43 20.4 21.46 20.34 21.5 20.28C22.25 18.91 22.25 18.91 22.65 18.51Z" fill="#901A1D" fill-opacity="1.000000" fill-rule="nonzero"/>
		<path id="path" d="M32.42 21.95C32.89 22.57 32.89 22.57 32.81 22.73C32.7 22.68 32.6 22.63 32.5 22.57C32.5 22.75 32.5 22.93 32.5 23.12C32.6 23.12 32.7 23.12 32.81 23.12C32.86 23.43 32.9 23.73 32.91 24.04C32.91 24.13 32.92 24.21 32.92 24.3C32.92 24.38 32.93 24.47 32.93 24.56C32.93 24.64 32.94 24.73 32.94 24.82C32.95 25.03 32.96 25.25 32.96 25.46C32.77 25.18 32.7 24.9 32.59 24.57C32.36 23.85 32.09 23.18 31.64 22.57C31.64 22.52 31.64 22.47 31.64 22.42C31.58 22.39 31.53 22.37 31.48 22.34C32.03 21.87 32.03 21.87 32.42 21.95Z" fill="#246272" fill-opacity="1.000000" fill-rule="nonzero"/>
		<path id="path" d="M21.75 17.66C22.7 18.18 22.7 18.18 22.57 18.67C22.46 18.86 22.34 19.05 22.22 19.24C21.77 19.94 21.38 20.66 21.01 21.4C20.98 21.4 20.96 21.4 20.93 21.4C20.93 20.84 21.13 20.58 21.39 20.1C21.43 20.02 21.47 19.94 21.52 19.86C21.56 19.78 21.6 19.71 21.64 19.63C21.68 19.56 21.72 19.49 21.76 19.42C21.87 19.22 21.99 19.02 22.1 18.82C21.82 18.82 21.54 18.82 21.25 18.82C21.25 17.44 21.25 17.44 21.75 17.66Z" fill="#C88047" fill-opacity="1.000000" fill-rule="nonzero"/>
		<path id="path" d="M33.51 22.03C33.88 22.37 34.03 22.74 34.21 23.2C34.24 23.27 34.28 23.34 34.31 23.42C34.61 24.24 34.55 25.07 34.53 25.93C34.47 25.93 34.42 25.93 34.37 25.93C34.37 26.04 34.37 26.14 34.37 26.25C34.32 26.25 34.27 26.25 34.21 26.25C34.21 26.5 34.21 26.76 34.21 27.03C34.19 27.03 34.16 27.03 34.14 27.03C34.03 26.29 33.97 25.58 33.98 24.83C33.98 24.09 33.91 23.37 33.75 22.65C33.69 22.65 33.64 22.65 33.59 22.65C33.56 22.45 33.54 22.24 33.51 22.03Z" fill="#F6D56B" fill-opacity="1.000000" fill-rule="nonzero"/>
		<path id="path" d="M15.85 12.34C15.85 12.39 15.85 12.44 15.85 12.5C15.95 12.49 16.04 12.49 16.13 12.48C16.68 12.48 17.2 12.61 17.73 12.73C17.73 12.78 17.73 12.83 17.73 12.89C17.81 12.91 17.88 12.94 17.96 12.96C17.37 13.16 16.77 12.98 16.18 12.85C15.44 12.69 14.79 12.63 14.04 12.66C13.63 12.65 13.38 12.54 13.04 12.34C13.9 11.91 15.03 11.79 15.85 12.34Z" fill="#F3D687" fill-opacity="1.000000" fill-rule="nonzero"/>
		<path id="path" d="M28.59 17.18C29.37 17.5 29.37 17.5 29.37 17.65C29.43 17.67 29.48 17.69 29.54 17.71C29.78 17.82 29.95 17.96 30.15 18.12C30.23 18.15 30.31 18.17 30.39 18.2C30.39 18.25 30.39 18.3 30.39 18.35C30.44 18.38 30.5 18.4 30.56 18.42C31.09 18.65 31.09 18.65 31.09 18.9C31.19 18.95 31.3 19 31.4 19.06C31.54 19.16 31.54 19.16 31.68 19.26C32.02 19.5 32.26 19.54 32.67 19.57C32.75 19.58 32.84 19.58 32.92 19.59C33.02 19.6 33.02 19.6 33.12 19.6C33.17 19.66 33.22 19.71 33.28 19.76C31.32 19.68 31.32 19.68 31.03 19.37C30.26 18.61 29.38 17.98 28.51 17.34C28.54 17.29 28.56 17.24 28.59 17.18Z" fill="#142220" fill-opacity="1.000000" fill-rule="nonzero"/>
		<path id="path" d="M15.15 13.28C15.82 13.31 16.4 13.52 17.03 13.75C16.95 13.78 16.95 13.78 16.87 13.82C16.78 14.42 16.78 14.42 17.34 14.53C17.34 14.47 17.34 14.42 17.34 14.37C17.39 14.37 17.44 14.37 17.5 14.37C17.5 14.68 17.5 14.68 17.26 14.76C17.16 14.73 17.05 14.71 16.95 14.68C16.95 14.73 16.95 14.79 16.95 14.84C17.1 14.84 17.26 14.84 17.42 14.84C17.44 14.89 17.47 14.94 17.5 15C17.55 14.97 17.6 14.94 17.65 14.92C18.12 15 18.12 15 18.35 15.39C18.23 15.63 18.13 15.52 17.89 15.46C17.71 15.38 17.71 15.38 17.53 15.28C17.44 15.23 17.44 15.23 17.35 15.17C17.27 15.12 17.27 15.12 17.18 15.07C17.07 15.02 17.07 15.02 16.96 14.96C16.75 14.81 16.64 14.65 16.48 14.45C16.05 14.06 15.61 13.7 15.15 13.35C15.15 13.33 15.15 13.3 15.15 13.28Z" fill="#5277B0" fill-opacity="1.000000" fill-rule="nonzero"/>
		<path id="path" d="M16.87 19.06C18.07 20.41 19.53 23.57 19.53 25.39C19.18 25.3 18.84 25.22 18.51 25.07C18.54 25.02 18.56 24.97 18.59 24.92C18.64 24.94 18.69 24.97 18.75 25C18.75 24.79 18.75 24.58 18.75 24.37C18.8 24.37 18.85 24.37 18.9 24.37C18.87 24.19 18.83 24 18.79 23.82C18.76 23.66 18.76 23.66 18.73 23.51C18.65 23.11 18.55 22.73 18.38 22.36C18.28 22.1 18.28 22.1 18.28 21.87C18.22 21.87 18.17 21.87 18.12 21.87C18.12 21.74 18.12 21.61 18.12 21.48C18.07 21.48 18.02 21.48 17.96 21.48C17.81 21.17 17.81 21.17 17.81 20.85C17.76 20.85 17.7 20.85 17.65 20.85C17.5 20.7 17.5 20.7 17.5 20.31C17.44 20.31 17.39 20.31 17.34 20.31C17.29 20.13 17.24 19.95 17.18 19.76C17.13 19.73 17.08 19.71 17.03 19.68C17.03 19.58 17.03 19.48 17.03 19.37C16.97 19.37 16.92 19.37 16.87 19.37C16.87 19.27 16.87 19.16 16.87 19.06Z" fill="#30B065" fill-opacity="1.000000" fill-rule="nonzero"/>
		<path id="path" d="M12.81 15.78C13.13 15.99 13.03 16 12.89 16.32C12.81 16.43 12.73 16.54 12.65 16.65C11.45 18.33 10.98 20.48 10.78 22.5C10.7 22.57 10.7 22.57 10.62 22.65C10.6 22.54 10.6 22.54 10.59 22.44C10.55 22.25 10.51 22.06 10.46 21.87C10.52 21.87 10.57 21.87 10.62 21.87C10.62 21.79 10.61 21.71 10.61 21.62C10.66 20.35 11.18 18.99 11.64 17.81C11.69 17.81 11.74 17.81 11.79 17.81C11.8 17.75 11.8 17.7 11.81 17.65C11.89 17.35 12.04 17.14 12.21 16.88C12.45 16.52 12.65 16.18 12.81 15.78Z" fill="#E9AF53" fill-opacity="1.000000" fill-rule="nonzero"/>
		<path id="path" d="M33.82 20.07C35.39 20.85 35.87 22.95 35.86 24.54C35.86 24.61 35.86 24.67 35.86 24.74C35.86 24.94 35.86 25.15 35.86 25.35C35.86 25.49 35.86 25.63 35.86 25.77C35.86 26.11 35.86 26.45 35.85 26.79C35.83 26.79 35.8 26.79 35.78 26.79C35.78 26.41 35.78 26.02 35.78 25.62C35.72 25.62 35.67 25.62 35.62 25.62C35.62 25.5 35.61 25.38 35.61 25.25C35.56 23.31 35.56 23.31 34.83 21.54C34.7 21.33 34.6 21.16 34.53 20.93C34.47 20.93 34.42 20.93 34.37 20.93C33.82 20.31 33.82 20.31 33.82 20.07Z" fill="#C96838" fill-opacity="1.000000" fill-rule="nonzero"/>
		<path id="path" d="M13.67 12.57C13.91 12.67 14.15 12.77 14.39 12.87C14.46 12.89 14.53 12.92 14.6 12.95C14.95 13.09 15.21 13.21 15.46 13.51C15.73 13.75 16 13.98 16.27 14.21C16.66 14.55 17.01 14.91 17.34 15.31C17.41 15.39 17.48 15.47 17.55 15.56C18.12 16.24 18.12 16.24 18.04 16.4C17.91 16.25 17.78 16.09 17.65 15.93C17.6 15.93 17.55 15.93 17.5 15.93C17.5 15.83 17.5 15.73 17.5 15.62C17.44 15.62 17.39 15.62 17.34 15.62C17.34 15.57 17.34 15.52 17.34 15.46C17.24 15.44 17.13 15.41 17.03 15.39C16.82 15.21 16.61 15.02 16.4 14.84C16.3 14.81 16.2 14.79 16.09 14.76C15.83 14.5 15.57 14.24 15.31 13.98C15.25 13.93 15.19 13.88 15.14 13.82C14.98 13.65 14.91 13.5 14.84 13.28C14.75 13.24 14.66 13.21 14.56 13.18C13.67 12.83 13.67 12.83 13.67 12.57Z" fill="#EF6A5C" fill-opacity="1.000000" fill-rule="nonzero"/>
		<path id="path" d="M22.34 22.89C22.5 23.12 22.5 23.12 22.34 23.43C22.19 23.74 22.18 23.96 22.18 24.29C22.17 24.37 22.15 24.45 22.14 24.54C22.09 24.78 22.09 24.78 22.18 25.07C22.2 25.3 22.22 25.53 22.23 25.77C22.23 25.84 22.23 25.91 22.24 25.98C22.38 29.56 22.38 29.56 22.03 30.15C21.95 30.13 21.87 30.1 21.79 30.07C21.91 30.03 21.91 30.03 22.03 30C22.02 29.36 22.01 28.72 22 28.08C21.99 27.87 21.99 27.65 21.99 27.44C21.98 27.12 21.98 26.81 21.97 26.5C21.97 26.36 21.97 26.36 21.97 26.21C21.97 26.12 21.97 26.03 21.96 25.93C21.96 25.81 21.96 25.81 21.96 25.69C21.95 25.45 21.91 25.23 21.87 25C21.81 24.25 22 23.56 22.34 22.89Z" fill="#101310" fill-opacity="1.000000" fill-rule="nonzero"/>
		<path id="path" d="M9.92 12.26C9.79 12.66 9.46 12.81 9.06 12.81C9.06 12.86 9.06 12.91 9.06 12.96C8.89 13.04 8.89 13.04 8.72 13.12C8.23 13.36 7.88 13.69 7.5 14.06C7.41 14.13 7.41 14.13 7.33 14.2C6.5 14.97 6.02 16.02 5.54 17.03C5.46 16.71 5.46 16.71 5.61 16.44C5.7 16.23 5.8 16.03 5.89 15.82C6.48 14.49 8.31 12.26 9.92 12.26Z" fill="#E3724F" fill-opacity="1.000000" fill-rule="nonzero"/>
		<path id="path" d="M12.57 15.62C12.81 15.78 12.81 15.78 12.73 16.25C12.34 16.79 12.34 16.79 12.16 16.82C12.08 16.84 12 16.85 11.92 16.87C11.85 16.88 11.77 16.89 11.69 16.91C11.26 16.97 11.26 16.97 11.17 17.42C11.12 17.44 11.06 17.47 11.01 17.5C11.11 16.8 11.8 15.44 12.57 15.62Z" fill="#BF8B47" fill-opacity="1.000000" fill-rule="nonzero"/>
		<path id="path" d="M32.5 22.57C33.06 22.76 33.01 22.82 33.27 23.33C33.33 23.44 33.39 23.55 33.44 23.66C33.57 23.94 33.64 24.15 33.67 24.45C33.43 24.42 33.2 24.4 32.96 24.37C32.96 24.58 32.96 24.78 32.96 25C33.02 25 33.07 25 33.12 25C33.15 25.46 33.17 25.92 33.2 26.4C32.84 25.69 32.86 24.86 32.84 24.08C32.83 23.98 32.83 23.89 32.83 23.8C32.82 23.57 32.81 23.35 32.81 23.12C32.7 23.12 32.6 23.12 32.5 23.12C32.5 22.94 32.5 22.76 32.5 22.57Z" fill="#2A7083" fill-opacity="1.000000" fill-rule="nonzero"/>
		<path id="path" d="M35.15 21.48C35.46 21.56 35.46 21.56 35.54 21.95C35.59 22 35.65 22.05 35.7 22.1C35.72 22.21 35.75 22.32 35.77 22.44C35.82 22.66 35.88 22.89 35.93 23.12C35.95 23.34 35.96 23.56 35.97 23.78C35.98 23.84 35.98 23.9 35.98 23.97C35.99 24.11 36 24.24 36.01 24.38C36.02 24.59 36.03 24.79 36.04 25C36.15 27.27 36.15 27.27 36.01 27.42C35.98 28.11 35.96 28.81 35.93 29.53C35.91 29.53 35.88 29.53 35.85 29.53C35.85 29.46 35.85 29.39 35.85 29.32C35.85 28.66 35.84 28 35.83 27.35C35.83 27.01 35.82 26.67 35.82 26.34C35.82 25.95 35.81 25.56 35.81 25.17C35.81 25.05 35.81 24.93 35.81 24.81C35.79 23.89 35.75 23.02 35.38 22.17C35.15 21.65 35.15 21.65 35.15 21.48Z" fill="#2D2318" fill-opacity="1.000000" fill-rule="nonzero"/>
		<path id="path" d="M10.62 14.06C10.62 14.11 10.62 14.16 10.62 14.21C10.77 14.19 10.93 14.16 11.09 14.14C11.32 14.37 11.32 14.37 11.25 14.84C10.49 14.79 9.73 14.7 8.98 14.6C8.98 14.09 10.23 14.02 10.62 14.06Z" fill="#2EA760" fill-opacity="1.000000" fill-rule="nonzero"/>
		<path id="path" d="M5.39 17.03C5.28 17.59 5.15 18.14 5 18.69C4.73 19.92 4.73 21.16 4.71 22.42C4.71 22.61 4.71 22.8 4.7 22.99C4.7 23.45 4.69 23.91 4.68 24.37C4.53 24.37 4.55 24.1 4.53 23.98C4.52 23.69 4.52 23.41 4.52 23.12C4.52 23.04 4.52 22.96 4.52 22.87C4.52 22.61 4.52 22.34 4.52 22.08C4.52 21.9 4.52 21.72 4.52 21.54C4.52 21.11 4.52 20.67 4.53 20.23C4.58 20.23 4.63 20.23 4.68 20.23C4.68 19.82 4.68 19.4 4.68 18.98C4.71 18.95 4.73 18.93 4.76 18.9C4.79 18.7 4.81 18.49 4.84 18.28C4.89 18.28 4.94 18.28 5 18.28C4.99 18.17 4.99 18.07 4.98 17.96C5.02 17.03 5.02 17.03 5.39 17.03Z" fill="#515B45" fill-opacity="1.000000" fill-rule="nonzero"/>
		<path id="path" d="M17.18 15.46C17.23 15.46 17.29 15.46 17.34 15.46C17.34 15.52 17.34 15.57 17.34 15.62C17.39 15.62 17.44 15.62 17.5 15.62C17.57 15.74 17.57 15.74 17.65 15.85C17.83 16.08 18.02 16.3 18.23 16.5C18.76 17.06 19.14 17.75 19.52 18.43C19.56 18.51 19.61 18.59 19.65 18.67C19.98 19.26 19.98 19.26 20.07 19.53C19.76 19.6 19.76 19.6 19.61 19.3C19.48 19 19.48 19 19.37 18.9C19.34 18.72 19.32 18.54 19.29 18.35C19.19 18.3 19.09 18.25 18.98 18.2C18.95 18.12 18.92 18.04 18.89 17.96C18.72 17.61 18.52 17.34 18.28 17.03C18.28 16.97 18.28 16.92 18.28 16.87C18.22 16.87 18.17 16.87 18.12 16.87C18.07 16.72 18.02 16.56 17.96 16.4C17.91 16.4 17.86 16.4 17.81 16.4C17.76 16.3 17.7 16.2 17.65 16.09C17.46 16.01 17.46 16.01 17.26 15.93C17.18 15.7 17.18 15.7 17.18 15.46Z" fill="#EE7550" fill-opacity="1.000000" fill-rule="nonzero"/>
		<path id="path" d="M5.07 18.43C5.1 19.17 5.04 19.9 4.97 20.63C4.93 20.96 4.91 21.23 5 21.56C5.11 21.52 5.11 21.52 5.23 21.48C5.23 21.58 5.23 21.69 5.23 21.79C5.28 21.82 5.33 21.84 5.39 21.87C5.31 22.03 5.31 22.03 5 21.95C4.92 21.92 4.84 21.9 4.76 21.87C4.76 22.72 4.76 23.57 4.76 24.45C4.73 24.45 4.71 24.45 4.68 24.45C4.68 23.88 4.68 23.31 4.67 22.75C4.67 22.56 4.67 22.36 4.67 22.17C4.64 18.43 4.64 18.43 5.07 18.43Z" fill="#E3B65C" fill-opacity="1.000000" fill-rule="nonzero"/>
		<path id="path" d="M18.43 25.31C18.46 25.31 18.48 25.31 18.51 25.31C18.51 26.73 18.51 28.14 18.51 29.6C18.46 29.6 18.41 29.6 18.35 29.6C18.3 29.22 18.25 28.83 18.2 28.43C18.17 28.43 18.15 28.43 18.12 28.43C18.12 26.95 18.12 26.95 18.35 26.48C18.4 26.18 18.4 26.18 18.41 25.86C18.42 25.71 18.42 25.71 18.42 25.55C18.43 25.47 18.43 25.39 18.43 25.31Z" fill="#232F1D" fill-opacity="1.000000" fill-rule="nonzero"/>
		<path id="path" d="M10.07 20C10.08 20.42 10.07 20.82 10 21.25C10.18 21.25 10.36 21.25 10.54 21.25C10.54 21.87 10.54 21.87 10.46 22.03C10.23 22 10 21.97 9.76 21.95C9.77 22.25 9.78 22.56 9.79 22.87C9.8 22.95 9.8 23.04 9.8 23.13C9.81 23.21 9.81 23.3 9.81 23.38C9.82 23.46 9.82 23.54 9.82 23.62C9.83 23.84 9.83 23.84 9.92 24.14C9.76 24.14 9.76 24.14 9.68 23.98C9.57 20 9.57 20 10.07 20Z" fill="#B67E32" fill-opacity="1.000000" fill-rule="nonzero"/>
		<path id="path" d="M13.82 12.57C14.03 12.57 14.25 12.57 14.46 12.57C14.58 12.57 14.69 12.57 14.81 12.57C15.6 12.58 15.6 12.58 15.7 12.89C15.67 13.04 15.65 13.2 15.62 13.35C14.06 13.04 14.06 13.04 13.82 12.57Z" fill="#F4EFE3" fill-opacity="1.000000" fill-rule="nonzero"/>
		<path id="path" d="M33.35 19.76C33.82 19.76 33.82 19.76 34.02 19.9C34.29 20.07 34.56 20.23 34.84 20.39C34.84 20.44 34.84 20.49 34.84 20.54C34.92 20.54 34.99 20.54 35.07 20.54C35.31 20.78 35.54 21.01 35.78 21.25C35.6 21.27 35.42 21.3 35.23 21.32C35.18 21.37 35.13 21.43 35.07 21.48C35.01 21.37 34.94 21.27 34.87 21.16C34.53 20.64 34.13 20.25 33.59 19.92C33.51 19.87 33.43 19.81 33.35 19.76Z" fill="#252B28" fill-opacity="1.000000" fill-rule="nonzero"/>
		<path id="path" d="M17.81 12.57C18.38 12.62 18.9 12.72 19.45 12.87C19.52 12.89 19.59 12.91 19.67 12.93C21.09 13.32 21.09 13.32 21.09 13.59C20.81 13.61 20.62 13.59 20.36 13.49C19.83 13.3 19.29 13.21 18.75 13.12C18.75 13.07 18.75 13.02 18.75 12.96C18.69 12.96 18.64 12.95 18.58 12.94C17.81 12.76 17.81 12.76 17.81 12.57Z" fill="#F5ECAE" fill-opacity="1.000000" fill-rule="nonzero"/>
		<path id="path" d="M1.25 7.5C1.45 7.5 1.66 7.5 1.87 7.5C1.87 7.55 1.87 7.6 1.87 7.65C1.82 7.65 1.77 7.65 1.71 7.65C1.71 7.7 1.71 7.75 1.71 7.81C1.77 7.81 1.82 7.81 1.87 7.81C1.87 7.86 1.87 7.91 1.87 7.96C1.82 7.96 1.77 7.96 1.71 7.96C1.71 8.02 1.71 8.07 1.71 8.12C1.77 8.12 1.82 8.12 1.87 8.12C1.87 8.22 1.87 8.33 1.87 8.43C1.92 8.43 1.97 8.43 2.03 8.43C2.03 8.48 2.03 8.54 2.03 8.59C1.97 8.59 1.92 8.59 1.87 8.59C1.87 8.64 1.87 8.69 1.87 8.75C1.66 8.82 1.46 8.9 1.25 8.98C1.25 8.49 1.25 8 1.25 7.5Z" fill="#366064" fill-opacity="1.000000" fill-rule="nonzero"/>
		<path id="path" d="M27.18 25.62C27.23 25.62 27.29 25.62 27.34 25.62C27.34 27.27 27.34 28.92 27.34 30.62C27.57 30.7 27.8 30.77 28.04 30.85C28.15 30.93 28.25 31.01 28.35 31.09C27.42 30.92 27.42 30.92 27.42 30.7C27.37 30.7 27.31 30.7 27.26 30.7C27.17 28.41 27.17 28.41 27.18 27.5C27.13 27.5 27.08 27.5 27.03 27.5C27.05 27.42 27.08 27.34 27.1 27.26C27.12 26.98 27.14 26.7 27.15 26.43C27.15 26.35 27.16 26.27 27.16 26.19C27.17 26 27.17 25.81 27.18 25.62Z" fill="#222314" fill-opacity="1.000000" fill-rule="nonzero"/>
		<path id="path" d="M7.1 22.26C7.13 22.26 7.16 22.26 7.18 22.26C7.22 23.46 7.22 23.46 7.26 24.68C6.59 24.79 6.05 24.86 5.39 24.84C5.46 24.8 5.46 24.8 5.54 24.76C5.54 24.01 5.54 23.27 5.54 22.5C5.57 22.5 5.59 22.5 5.62 22.5C5.62 23.24 5.62 23.99 5.62 24.76C6.16 24.84 6.16 24.84 6.25 24.6C6.4 24.63 6.55 24.66 6.71 24.68C6.71 24.63 6.71 24.58 6.71 24.53C6.79 24.47 6.87 24.42 6.95 24.37C6.96 24.21 6.96 24.21 6.96 24.05C6.97 23.91 6.98 23.76 6.98 23.62C6.99 23.55 6.99 23.48 6.99 23.41C7.01 23.02 7.04 22.64 7.1 22.26Z" fill="#F1C85E" fill-opacity="1.000000" fill-rule="nonzero"/>
		<path id="path" d="M22.65 18.35C22.56 18.71 22.42 18.93 22.22 19.24C21.77 19.94 21.38 20.66 21.01 21.4C20.98 21.4 20.96 21.4 20.93 21.4C20.93 20.85 22.09 18.17 22.65 18.35Z" fill="#EDB96B" fill-opacity="1.000000" fill-rule="nonzero"/>
		<path id="path" d="M10.78 14.84C11.01 14.92 11.01 14.92 11.01 15.07C11.06 15.1 11.11 15.12 11.17 15.15C11.11 15.17 11.05 15.2 10.99 15.22C10.29 15.54 9.81 15.99 9.29 16.56C9.14 16.48 9.14 16.48 9.21 16.17C9.27 16.19 9.32 16.22 9.37 16.25C9.37 16.12 9.37 15.99 9.37 15.85C9.65 15.57 9.92 15.33 10.31 15.46C10.31 15.41 10.31 15.36 10.31 15.31C10.38 15.26 10.46 15.2 10.54 15.15C10.57 14.93 10.57 14.93 10.15 14.92C10.28 14.65 10.51 14.8 10.78 14.84Z" fill="#A82627" fill-opacity="1.000000" fill-rule="nonzero"/>
		<path id="path" d="M1.87 39.37C2.08 39.37 2.28 39.37 2.5 39.37C2.5 39.42 2.5 39.47 2.5 39.53C2.93 39.53 3.37 39.53 3.82 39.53C3.64 39.9 2.75 39.77 2.38 39.77C2.27 39.77 2.27 39.77 2.17 39.77C1.95 39.77 1.73 39.77 1.52 39.77C1.37 39.77 1.22 39.76 1.08 39.76C0.72 39.76 0.36 39.76 0 39.76C0 39.73 0 39.71 0 39.68C0.51 39.68 1.03 39.68 1.56 39.68C1.56 39.63 1.56 39.58 1.56 39.53C1.66 39.55 1.76 39.58 1.87 39.6C1.87 39.53 1.87 39.45 1.87 39.37Z" fill="#304747" fill-opacity="1.000000" fill-rule="nonzero"/>
		<path id="path" d="M11.95 15.39C12.05 15.44 12.15 15.49 12.26 15.54C12.22 15.59 12.17 15.64 12.13 15.7C11.42 16.54 10.95 17.41 10.54 18.43C10.41 17.92 10.63 17.51 10.93 17.1C10.96 17 10.98 16.9 11.01 16.79C11.09 16.77 11.17 16.74 11.25 16.71C11.25 16.51 11.25 16.3 11.25 16.09C11.4 15.99 11.55 15.88 11.71 15.78C11.79 15.65 11.87 15.52 11.95 15.39Z" fill="#171D18" fill-opacity="1.000000" fill-rule="nonzero"/>
		<path id="path" d="M25.23 15.23C25.9 15.44 26.51 15.74 27.1 16.11C27.17 16.15 27.23 16.19 27.29 16.23C27.72 16.49 28.12 16.78 28.51 17.1C28.35 17.26 28.35 17.26 28.15 17.12C27.38 16.6 26.58 16.11 25.78 15.64C25.23 15.31 25.23 15.31 25.23 15.23Z" fill="#22372D" fill-opacity="1.000000" fill-rule="nonzero"/>
		<path id="path" d="M7.5 13.67C7.57 13.98 7.57 13.98 7.44 14.09C6.57 14.92 6.05 15.96 5.54 17.03C5.46 16.71 5.46 16.71 5.61 16.44C5.7 16.23 5.8 16.03 5.88 15.82C6.25 15 6.87 14.31 7.5 13.67Z" fill="#D47148" fill-opacity="1.000000" fill-rule="nonzero"/>
		<path id="path" d="M12.03 21.87C12.03 22.64 12.03 23.42 12.03 24.21C11.52 24.25 11.52 24.25 11.01 24.29C11.09 24.27 11.17 24.24 11.25 24.21C11.25 24.06 11.25 23.9 11.25 23.75C11.55 23.71 11.55 23.71 11.87 23.67C11.9 23.1 11.92 22.53 11.95 21.95C11.48 21.99 11.48 21.99 11.01 22.03C11.25 21.87 11.25 21.87 12.03 21.87Z" fill="#BA803A" fill-opacity="1.000000" fill-rule="nonzero"/>
		<path id="path" d="M8.98 12.34C9.08 12.39 9.19 12.44 9.29 12.5C9.24 12.52 9.19 12.55 9.13 12.57C8.19 13.06 7.48 13.72 6.79 14.53C6.77 14.53 6.74 14.53 6.71 14.53C6.71 14.14 6.71 14.14 6.95 14.06C6.95 14.01 6.95 13.95 6.95 13.9C7.05 13.88 7.15 13.85 7.26 13.82C7.26 13.75 7.26 13.67 7.26 13.59C7.31 13.59 7.36 13.59 7.42 13.59C7.42 13.54 7.42 13.49 7.42 13.43C8.12 12.89 8.12 12.89 8.35 12.89C8.38 12.81 8.41 12.73 8.43 12.65C8.54 12.65 8.64 12.65 8.75 12.65C8.75 12.6 8.75 12.55 8.75 12.5C8.82 12.5 8.9 12.5 8.98 12.5C8.98 12.44 8.98 12.39 8.98 12.34Z" fill="#304441" fill-opacity="1.000000" fill-rule="nonzero"/>
		<path id="path" d="M33.51 22.03C33.88 22.37 34 22.66 34.05 23.16C34.06 23.26 34.07 23.36 34.08 23.47C34.09 23.62 34.09 23.62 34.11 23.78C34.12 23.89 34.13 23.99 34.14 24.09C34.3 25.76 34.3 25.76 34.06 26.25C34.01 25.74 33.98 25.24 33.98 24.74C33.98 24.03 33.9 23.34 33.75 22.65C33.69 22.65 33.64 22.65 33.59 22.65C33.56 22.45 33.54 22.24 33.51 22.03Z" fill="#F4D881" fill-opacity="1.000000" fill-rule="nonzero"/>
		<path id="path" d="M18.43 12.5C19.14 12.5 19.14 12.5 19.37 12.65C19.37 12.7 19.37 12.75 19.37 12.81C19.47 12.8 19.58 12.8 19.69 12.8C20.22 12.81 20.62 12.95 21.09 13.2C20.65 13.42 20.33 13.23 19.87 13.09C19.74 13.05 19.74 13.05 19.61 13.02C19.53 12.99 19.44 12.97 19.36 12.94C19.28 12.92 19.2 12.9 19.13 12.88C18.43 12.67 18.43 12.67 18.43 12.5Z" fill="#305348" fill-opacity="1.000000" fill-rule="nonzero"/>
		<path id="path" d="M23.28 14.21C23.79 14.25 24.16 14.44 24.6 14.68C24.71 14.73 24.81 14.78 24.91 14.83C25.31 15.04 25.7 15.25 26.09 15.46C25.39 15.7 23.88 14.63 23.28 14.29C23.28 14.27 23.28 14.24 23.28 14.21Z" fill="#24423A" fill-opacity="1.000000" fill-rule="nonzero"/>
		<path id="path" d="M35.78 26.79C35.8 26.79 35.83 26.79 35.85 26.79C35.85 27.69 35.85 28.6 35.85 29.53C35.46 29.4 35.46 29.4 35.46 28.75C35.52 28.75 35.57 28.75 35.62 28.75C35.62 28.56 35.62 28.38 35.62 28.2C35.65 28.17 35.67 28.15 35.7 28.12C35.72 27.68 35.75 27.24 35.78 26.79Z" fill="#F6C054" fill-opacity="1.000000" fill-rule="nonzero"/>
		<path id="path" d="M10.23 14.68C10.23 14.71 10.23 14.73 10.23 14.76C10.05 14.79 9.87 14.81 9.68 14.84C9.61 14.89 9.53 14.94 9.45 15C8.82 15 8.82 15 8.67 14.92C8.59 14.99 8.51 15.07 8.43 15.15C8.36 15.15 8.28 15.15 8.2 15.15C8.2 14.15 9.92 14.65 10.23 14.68Z" fill="#7E2817" fill-opacity="1.000000" fill-rule="nonzero"/>
		<path id="path" d="M7.34 16.01C7.5 16.25 7.5 16.25 7.5 16.87C7.37 16.9 7.24 16.92 7.1 16.95C7.08 17.03 7.05 17.1 7.03 17.18C6.97 17.18 6.92 17.18 6.87 17.18C6.87 17.29 6.87 17.39 6.87 17.5C6.79 17.5 6.72 17.5 6.64 17.5C6.61 17.6 6.58 17.7 6.56 17.81C6.42 17.54 6.65 17.31 6.78 17.05C6.86 16.88 6.86 16.88 6.94 16.71C7.07 16.47 7.2 16.24 7.34 16.01Z" fill="#AE2812" fill-opacity="1.000000" fill-rule="nonzero"/>
		<path id="path" d="M12.96 16.09C13.28 16.2 13.5 16.34 13.75 16.56C13.57 17.26 13.57 17.26 13.28 17.26C13.28 17.18 13.28 17.11 13.28 17.03C13.22 17.03 13.17 17.03 13.12 17.03C13.12 16.79 13.12 16.56 13.12 16.32C13.04 16.32 12.97 16.32 12.89 16.32C12.91 16.25 12.94 16.17 12.96 16.09Z" fill="#9B4334" fill-opacity="1.000000" fill-rule="nonzero"/>
		<path id="path" d="M33.59 22.65C33.9 22.65 33.92 23.17 33.98 23.43C34.06 24.06 34.07 24.68 34.06 25.31C34.03 25.31 34.01 25.31 33.98 25.31C33.93 24.84 33.88 24.38 33.82 23.9C33.75 23.85 33.67 23.8 33.59 23.75C33.59 23.38 33.59 23.02 33.59 22.65Z" fill="#E6DAAD" fill-opacity="1.000000" fill-rule="nonzero"/>
		<path id="path" d="M22.34 22.89C22.5 23.12 22.5 23.12 22.34 23.43C22.19 23.74 22.18 23.96 22.18 24.29C22.17 24.37 22.15 24.45 22.14 24.54C22.09 24.78 22.09 24.78 22.18 25.07C22.19 25.23 22.19 25.39 22.18 25.54C21.72 25.39 21.82 24.64 21.87 24.21C21.99 23.76 22.13 23.3 22.34 22.89Z" fill="#24131C" fill-opacity="1.000000" fill-rule="nonzero"/>
		<path id="path" d="M15.23 13.43C15.55 13.54 15.73 13.68 15.97 13.93C16.17 14.14 16.36 14.32 16.59 14.51C16.79 14.68 16.9 14.84 17.03 15.07C16.79 15.07 16.79 15.07 16.58 14.85C16.37 14.65 16.19 14.51 15.93 14.37C15.89 14.3 15.85 14.23 15.8 14.16C15.62 13.91 15.43 13.67 15.23 13.43Z" fill="#EE948C" fill-opacity="1.000000" fill-rule="nonzero"/>
		<path id="path" d="M21.64 17.65C21.99 17.76 22.22 17.96 22.5 18.2C22.18 18.75 22.18 18.75 21.87 18.75C21.87 18.49 21.87 18.23 21.87 17.96C21.79 17.94 21.72 17.91 21.64 17.89C21.64 17.81 21.64 17.73 21.64 17.65Z" fill="#B47746" fill-opacity="1.000000" fill-rule="nonzero"/>
		<path id="path" d="M12.81 15.78C13.13 15.99 13.03 16 12.89 16.32C12.8 16.45 12.72 16.57 12.63 16.68C12.34 17.09 12.1 17.52 11.87 17.96C11.84 17.96 11.82 17.96 11.79 17.96C11.87 17.42 11.87 17.42 12.02 17.2C12.08 17.1 12.14 17 12.21 16.9C12.27 16.81 12.33 16.71 12.4 16.62C12.56 16.34 12.69 16.07 12.81 15.78Z" fill="#E3AB6B" fill-opacity="1.000000" fill-rule="nonzero"/>
		<path id="path" d="M28.75 29.37C28.82 29.37 28.9 29.37 28.98 29.37C28.98 29.91 28.98 30.45 28.98 31.01C29.29 30.97 29.29 30.97 29.6 30.93C29.35 31.1 29.11 31.23 28.82 31.09C28.71 30.76 28.74 30.44 28.74 30.1C28.74 30.03 28.74 29.96 28.74 29.89C28.74 29.71 28.74 29.54 28.75 29.37Z" fill="#FAD55B" fill-opacity="1.000000" fill-rule="nonzero"/>
		<path id="path" d="M10.62 0C11.08 0 11.55 0 12.03 0C12.03 0.1 12.03 0.2 12.03 0.31C11.53 0.37 11.11 0.39 10.62 0.31C10.62 0.2 10.62 0.1 10.62 0Z" fill="#386163" fill-opacity="1.000000" fill-rule="nonzero"/>
		<path id="path" d="M28.43 17.34C28.79 17.46 29.05 17.65 29.35 17.88C29.43 17.95 29.52 18.02 29.62 18.09C29.84 18.28 29.84 18.28 30 18.51C29.84 18.59 29.84 18.59 29.68 18.51C29.68 18.46 29.68 18.41 29.68 18.35C29.55 18.33 29.42 18.3 29.29 18.28C29.29 18.22 29.29 18.17 29.29 18.12C29.1 18.04 29.1 18.04 28.9 17.96C28.9 17.91 28.9 17.86 28.9 17.81C28.67 17.77 28.67 17.77 28.43 17.73C28.43 17.6 28.43 17.47 28.43 17.34Z" fill="#F2E599" fill-opacity="1.000000" fill-rule="nonzero"/>
		<path id="path" d="M33.82 25.15C34.05 25.38 34.02 25.58 34.06 25.9C34.07 26.01 34.09 26.12 34.1 26.23C34.13 26.53 34.14 26.81 34.14 27.1C33.85 27.1 33.57 27.1 33.28 27.1C33.28 27.08 33.28 27.05 33.28 27.03C33.51 27.03 33.74 27.03 33.98 27.03C33.98 26.77 33.98 26.51 33.98 26.25C33.9 26.25 33.82 26.25 33.75 26.25C33.74 25.5 33.74 25.5 33.82 25.15Z" fill="#38777B" fill-opacity="1.000000" fill-rule="nonzero"/>
		<path id="path" d="M22.73 17.65C22.88 17.96 22.93 18.18 22.96 18.51C22.65 18.51 22.65 18.51 22.48 18.3C22.31 18.1 22.14 17.91 21.95 17.73C22.2 17.6 22.46 17.65 22.73 17.65Z" fill="#5776A1" fill-opacity="1.000000" fill-rule="nonzero"/>
		<path id="path" d="M21.4 22.57C21.56 22.73 21.56 22.73 21.56 22.96C21.61 22.96 21.66 22.96 21.71 22.96C21.71 23.02 21.71 23.07 21.71 23.12C21.77 23.12 21.82 23.12 21.87 23.12C21.87 23.33 21.87 23.53 21.87 23.75C21.92 23.75 21.97 23.75 22.03 23.75C21.87 24.6 21.87 24.6 21.79 24.6C21.74 24.37 21.69 24.13 21.64 23.9C21.62 23.8 21.62 23.8 21.6 23.7C21.52 23.32 21.45 22.95 21.4 22.57Z" fill="#991E20" fill-opacity="1.000000" fill-rule="nonzero"/>
		<path id="path" d="M16.87 19.06C17.09 19.32 17.26 19.57 17.42 19.87C17.46 19.95 17.5 20.03 17.54 20.11C17.58 20.19 17.62 20.27 17.67 20.36C17.71 20.44 17.75 20.52 17.8 20.6C18.11 21.21 18.11 21.21 18.2 21.48C17.96 21.48 17.96 21.48 17.81 21.17C17.81 21.06 17.81 20.96 17.81 20.85C17.76 20.85 17.7 20.85 17.65 20.85C17.5 20.7 17.5 20.7 17.5 20.31C17.44 20.31 17.39 20.31 17.34 20.31C17.29 20.13 17.24 19.95 17.18 19.76C17.13 19.73 17.08 19.71 17.03 19.68C17.03 19.58 17.03 19.48 17.03 19.37C16.97 19.37 16.92 19.37 16.87 19.37C16.87 19.27 16.87 19.16 16.87 19.06Z" fill="#4CB95A" fill-opacity="1.000000" fill-rule="nonzero"/>
		<path id="path" d="M28.75 16.87C28.95 16.87 29.16 16.87 29.37 16.87C29.37 17.08 29.37 17.28 29.37 17.5C29.06 17.45 28.87 17.4 28.59 17.26C28.51 17.3 28.51 17.3 28.43 17.34C28.43 17.24 28.43 17.13 28.43 17.03C28.54 17.05 28.64 17.08 28.75 17.1C28.75 17.03 28.75 16.95 28.75 16.87Z" fill="#2B4B4B" fill-opacity="1.000000" fill-rule="nonzero"/>
		<path id="path" d="M16.25 33.75C16.45 33.75 16.66 33.75 16.87 33.75C16.87 33.95 16.87 34.16 16.87 34.37C16.66 34.37 16.46 34.37 16.25 34.37C16.25 34.16 16.25 33.96 16.25 33.75Z" fill="#0A2A3B" fill-opacity="1.000000" fill-rule="nonzero"/>
		<path id="path" d="M16.4 19.76C16.45 19.76 16.5 19.76 16.56 19.76C16.56 19.84 16.56 19.92 16.56 20C16.66 20 16.76 20 16.87 20C16.89 20.1 16.91 20.21 16.93 20.32C17.05 20.91 17.05 20.91 17.5 21.25C17.52 21.5 17.55 21.76 17.57 22.03C17.26 21.87 17.14 21.38 17 21.07C16.96 20.99 16.92 20.91 16.88 20.82C16.84 20.74 16.8 20.66 16.76 20.58C16.71 20.47 16.71 20.47 16.65 20.36C16.56 20.16 16.48 19.96 16.4 19.76Z" fill="#43BC7B" fill-opacity="1.000000" fill-rule="nonzero"/>
		<path id="path" d="M31.56 19.68C32.88 19.65 32.88 19.65 33.43 19.84C33.43 19.86 33.43 19.89 33.43 19.92C32.91 19.99 32.4 20 31.87 20C31.87 19.92 31.87 19.84 31.87 19.76C31.77 19.73 31.66 19.71 31.56 19.68Z" fill="#F5E398" fill-opacity="1.000000" fill-rule="nonzero"/>
		<path id="path" d="M39.06 24.21C39.52 24.29 39.52 24.29 40 24.37C40 24.68 40 24.99 40 25.31C39.84 25.23 39.84 25.23 39.76 25.07C39.56 24.77 39.32 24.54 39.06 24.29C39.06 24.27 39.06 24.24 39.06 24.21Z" fill="#284B51" fill-opacity="1.000000" fill-rule="nonzero"/>
		<path id="path" d="M18.82 22.96C19.06 23.04 19.06 23.04 19.14 23.43C19.21 23.43 19.29 23.43 19.37 23.43C19.46 23.93 19.46 24.41 19.45 24.92C19.25 24.61 19.16 24.29 19.05 23.94C19.03 23.87 19 23.8 18.98 23.73C18.82 23.23 18.82 23.23 18.82 22.96Z" fill="#EEEA86" fill-opacity="1.000000" fill-rule="nonzero"/>
		<path id="path" d="M12.34 20.15C12.36 20.88 12.36 20.88 12.26 21.14C12.17 21.45 12.16 21.73 12.15 22.06C12.15 22.19 12.14 22.31 12.14 22.44C12.14 22.57 12.14 22.71 12.13 22.84C12.13 22.97 12.13 23.1 12.12 23.24C12.12 23.56 12.11 23.89 12.1 24.21C12.08 24.21 12.05 24.21 12.03 24.21C12.02 23.81 12.02 23.41 12.01 23.01C12.01 22.87 12.01 22.73 12.01 22.6C11.97 20.15 11.97 20.15 12.34 20.15Z" fill="#422820" fill-opacity="1.000000" fill-rule="nonzero"/>
		<path id="path" d="M25.39 18.75C25.51 18.85 25.51 18.85 25.63 18.96C25.8 19.1 25.96 19.23 26.13 19.36C26.34 19.54 26.53 19.75 26.71 19.97C27.02 20.32 27.34 20.66 27.65 21.01C27.42 21.09 27.42 21.09 27.31 20.95C27.26 20.89 27.22 20.83 27.17 20.76C27.12 20.7 27.08 20.64 27.03 20.58C26.86 20.37 26.67 20.18 26.48 20C26.39 19.9 26.29 19.81 26.2 19.72C26.15 19.67 26.11 19.62 26.06 19.57C25.39 18.9 25.39 18.9 25.39 18.75Z" fill="#5989B7" fill-opacity="1.000000" fill-rule="nonzero"/>
		<path id="path" d="M11.71 12.03C13.07 12.01 14.42 12.06 15.78 12.1C15.78 12.13 15.78 12.16 15.78 12.18C15.35 12.2 14.92 12.21 14.49 12.22C14.35 12.23 14.2 12.23 14.06 12.24C13.26 12.27 12.5 12.28 11.71 12.1C11.71 12.08 11.71 12.05 11.71 12.03Z" fill="#344644" fill-opacity="1.000000" fill-rule="nonzero"/>
		<path id="path" d="M33.51 21.95C33.54 22.18 33.56 22.41 33.59 22.65C33.56 22.57 33.54 22.5 33.51 22.42C33.46 22.42 33.41 22.42 33.35 22.42C33.3 22.29 33.25 22.16 33.2 22.03C32.87 21.88 32.69 21.83 32.34 21.95C32.31 21.87 32.29 21.79 32.26 21.71C32.79 21.54 33.08 21.6 33.51 21.95Z" fill="#E5D3AD" fill-opacity="1.000000" fill-rule="nonzero"/>
		<path id="path" d="M18.12 21.48C18.32 21.75 18.42 21.92 18.53 22.22C18.58 22.35 18.58 22.35 18.62 22.47C18.67 22.6 18.67 22.6 18.72 22.73C18.75 22.82 18.79 22.91 18.82 23C19.06 23.64 19.06 23.64 19.06 23.9C19.01 23.9 18.95 23.9 18.9 23.9C18.9 23.85 18.9 23.8 18.9 23.75C18.85 23.75 18.8 23.75 18.75 23.75C18.74 23.67 18.73 23.59 18.72 23.51C18.65 23.1 18.55 22.74 18.38 22.36C18.28 22.1 18.28 22.1 18.28 21.87C18.22 21.87 18.17 21.87 18.12 21.87C18.12 21.74 18.12 21.61 18.12 21.48Z" fill="#3CAE5C" fill-opacity="1.000000" fill-rule="nonzero"/>
		<path id="path" d="M10.62 2.5C10.72 2.5 10.83 2.5 10.93 2.5C10.93 2.55 10.93 2.6 10.93 2.65C10.98 2.65 11.04 2.65 11.09 2.65C11.09 2.6 11.09 2.55 11.09 2.5C11.14 2.5 11.19 2.5 11.25 2.5C11.25 2.7 11.25 2.91 11.25 3.12C11.04 3.15 10.83 3.17 10.62 3.2C10.62 2.97 10.62 2.73 10.62 2.5Z" fill="#366063" fill-opacity="1.000000" fill-rule="nonzero"/>
		<path id="path" d="M27.34 27.5C27.51 27.5 27.54 28.09 27.57 28.28C27.57 28.61 27.55 28.94 27.53 29.27C27.53 29.34 27.53 29.41 27.52 29.48C27.51 29.65 27.5 29.82 27.5 30C27.44 30 27.39 30 27.34 30C27.34 29.17 27.34 28.35 27.34 27.5Z" fill="#F4D871" fill-opacity="1.000000" fill-rule="nonzero"/>
		<path id="path" d="M28.28 3.43C28.43 3.43 28.59 3.43 28.75 3.43C28.75 3.74 28.75 4.05 28.75 4.37C28.64 4.37 28.54 4.37 28.43 4.37C28.43 4.22 28.43 4.06 28.43 3.9C28.38 3.9 28.33 3.9 28.28 3.9C28.28 3.75 28.28 3.59 28.28 3.43Z" fill="#366064" fill-opacity="1.000000" fill-rule="nonzero"/>
		<path id="path" d="M16.25 14.53C16.33 14.6 16.41 14.67 16.49 14.75C16.74 14.95 16.89 15.05 17.18 15.15C17.29 15.27 17.41 15.4 17.52 15.52C17.58 15.59 17.64 15.66 17.71 15.73C18.13 16.22 18.13 16.22 18.04 16.4C17.91 16.25 17.78 16.09 17.65 15.93C17.6 15.93 17.55 15.93 17.5 15.93C17.5 15.83 17.5 15.73 17.5 15.62C17.44 15.62 17.39 15.62 17.34 15.62C17.34 15.57 17.34 15.52 17.34 15.46C17.24 15.44 17.13 15.41 17.03 15.39C16.92 15.3 16.82 15.22 16.72 15.13C16.67 15.08 16.61 15.04 16.55 14.99C16.4 14.84 16.4 14.84 16.25 14.53Z" fill="#EB846C" fill-opacity="1.000000" fill-rule="nonzero"/>
		<path id="path" d="M13.04 12.26C13.04 12.29 13.04 12.31 13.04 12.34C12.89 12.36 12.73 12.39 12.57 12.42C12.57 12.37 12.57 12.31 12.57 12.26C12.35 12.25 12.12 12.23 11.89 12.22C11.76 12.21 11.64 12.2 11.51 12.19C11.17 12.17 11.17 12.17 10.85 12.26C10.69 12.27 10.53 12.27 10.37 12.27C10.28 12.26 10.2 12.26 10.11 12.26C10.05 12.26 9.98 12.26 9.92 12.26C10.88 11.78 12.03 12.06 13.04 12.26Z" fill="#D96F56" fill-opacity="1.000000" fill-rule="nonzero"/>
		<path id="path" d="M32.42 21.95C32.34 21.97 32.26 22 32.18 22.03C31.9 22.66 31.9 22.66 32.03 23.04C31.85 22.83 31.72 22.68 31.64 22.42C31.58 22.39 31.53 22.37 31.48 22.34C32.03 21.87 32.03 21.87 32.42 21.95Z" fill="#33535B" fill-opacity="1.000000" fill-rule="nonzero"/>
		<path id="path" d="M8.2 18.2C8.3 18.59 8.19 18.8 8.05 19.17C7.86 19.65 7.74 20.11 7.65 20.62C7.6 20.67 7.55 20.72 7.5 20.78C7.47 20.3 7.57 19.89 7.71 19.44C7.74 19.38 7.76 19.31 7.78 19.24C7.89 18.87 8.02 18.53 8.2 18.2Z" fill="#2C1015" fill-opacity="1.000000" fill-rule="nonzero"/>
		<path id="path" d="M7.5 18.75C7.65 18.75 7.8 18.75 7.96 18.75C7.92 18.95 7.87 19.15 7.82 19.36C7.79 19.47 7.76 19.58 7.73 19.7C7.65 20 7.65 20 7.5 20.23C7.5 20.05 7.5 19.87 7.5 19.68C7.55 19.68 7.6 19.68 7.65 19.68C7.65 19.58 7.65 19.48 7.65 19.37C7.6 19.37 7.55 19.37 7.5 19.37C7.5 19.16 7.5 18.96 7.5 18.75Z" fill="#A22326" fill-opacity="1.000000" fill-rule="nonzero"/>
		<path id="path" d="M30.39 27.81C30.39 28.81 30.39 29.82 30.39 30.85C30.18 30.88 29.97 30.91 29.76 30.93C30 30.78 30 30.78 30.31 30.78C30.28 29.9 30.26 29.02 30.23 28.12C30.18 28.12 30.13 28.12 30.07 28.12C30.18 27.81 30.18 27.81 30.39 27.81Z" fill="#F0CB64" fill-opacity="1.000000" fill-rule="nonzero"/>
		<path id="path" d="M0 39.76C1.23 39.8 1.23 39.8 2.5 39.84C2.5 39.86 2.5 39.89 2.5 39.92C1.66 39.98 0.83 40 0 40C0 39.92 0 39.84 0 39.76Z" fill="#8A5E6F" fill-opacity="1.000000" fill-rule="nonzero"/>
		<path id="path" d="M33.35 19.76C33.82 19.76 33.82 19.76 34.02 19.9C34.29 20.07 34.56 20.23 34.84 20.39C34.84 20.44 34.84 20.49 34.84 20.54C34.92 20.57 34.99 20.59 35.07 20.62C34.6 20.62 34.6 20.62 34.43 20.43C34.22 20.23 34.09 20.17 33.82 20.07C33.35 19.84 33.35 19.84 33.35 19.76Z" fill="#223637" fill-opacity="1.000000" fill-rule="nonzero"/>
		<path id="path" d="M6.79 14.76C6.82 14.84 6.84 14.92 6.87 15C6.82 15 6.77 15 6.71 15C6.69 15.08 6.67 15.16 6.65 15.25C6.56 15.54 6.56 15.54 6.32 15.85C6.24 15.98 6.17 16.11 6.09 16.25C6.01 16.27 5.93 16.3 5.85 16.32C6.07 15.75 6.39 15.22 6.79 14.76Z" fill="#F8D480" fill-opacity="1.000000" fill-rule="nonzero"/>
		<path id="path" d="M14.39 12.26C14.54 12.26 14.54 12.26 14.69 12.26C14.92 12.26 14.92 12.26 15 12.5C13.75 12.5 13.75 12.5 13.51 12.34C13.82 12.26 14.07 12.25 14.39 12.26Z" fill="#F8D27B" fill-opacity="1.000000" fill-rule="nonzero"/>
		<path id="path" d="M18.51 25.07C18.7 25.11 18.7 25.11 18.9 25.15C18.82 25.19 18.82 25.19 18.75 25.23C18.75 25.56 18.75 25.9 18.75 26.25C18.67 26.25 18.59 26.25 18.51 26.25C18.51 25.86 18.51 25.47 18.51 25.07Z" fill="#EEE07F" fill-opacity="1.000000" fill-rule="nonzero"/>
		<path id="path" d="M17.18 15.46C17.23 15.46 17.29 15.46 17.34 15.46C17.34 15.52 17.34 15.57 17.34 15.62C17.39 15.62 17.44 15.62 17.5 15.62C17.57 15.74 17.57 15.74 17.65 15.85C17.87 16.14 18.06 16.34 18.35 16.56C18.33 16.61 18.3 16.66 18.28 16.71C17.96 16.56 17.96 16.56 17.96 16.4C17.91 16.4 17.86 16.4 17.81 16.4C17.76 16.3 17.7 16.2 17.65 16.09C17.46 16.01 17.46 16.01 17.26 15.93C17.18 15.7 17.18 15.7 17.18 15.46Z" fill="#F1775B" fill-opacity="1.000000" fill-rule="nonzero"/>
		<path id="path" d="M2.81 4.37C2.86 4.37 2.91 4.37 2.96 4.37C2.96 4.42 2.96 4.47 2.96 4.53C3.02 4.53 3.07 4.53 3.12 4.53C3.12 4.68 3.12 4.84 3.12 5C2.91 5 2.71 5 2.5 5C2.5 4.6 2.5 4.6 2.65 4.53C2.65 4.58 2.65 4.63 2.65 4.68C2.7 4.68 2.75 4.68 2.81 4.68C2.81 4.58 2.81 4.48 2.81 4.37Z" fill="#366064" fill-opacity="1.000000" fill-rule="nonzero"/>
		<path id="path" d="M9.45 27.5C9.45 27.75 9.45 28.01 9.45 28.28C9.18 28.05 8.92 27.82 8.67 27.57C8.82 27.5 8.82 27.5 9.45 27.5Z" fill="#102D3A" fill-opacity="1.000000" fill-rule="nonzero"/>
		<path id="path" d="M22.65 18.51C22.81 18.75 22.81 18.75 22.34 19.45C22.21 19.5 22.08 19.55 21.95 19.6C22.02 19.47 22.09 19.33 22.17 19.19C22.21 19.11 22.25 19.04 22.29 18.96C22.42 18.75 22.42 18.75 22.65 18.51Z" fill="#932B1F" fill-opacity="1.000000" fill-rule="nonzero"/>
		<path id="path" d="M13.75 16.64C13.82 16.71 13.9 16.79 13.98 16.87C13.9 16.87 13.82 16.87 13.75 16.87C13.74 16.92 13.73 16.98 13.73 17.04C13.65 17.31 13.51 17.5 13.35 17.73C13.33 17.83 13.3 17.94 13.28 18.04C13.2 18.07 13.12 18.09 13.04 18.12C13.09 17.8 13.19 17.57 13.35 17.29C13.39 17.22 13.43 17.14 13.47 17.07C13.56 16.92 13.65 16.78 13.75 16.64Z" fill="#3C1C1E" fill-opacity="1.000000" fill-rule="nonzero"/>
		<path id="path" d="M14.21 15.78C14.76 15.85 14.76 15.85 14.84 16.09C14.81 16.14 14.79 16.19 14.76 16.25C14.89 16.27 15.02 16.3 15.15 16.32C15.15 16.37 15.15 16.43 15.15 16.48C15.2 16.48 15.25 16.48 15.31 16.48C15.31 16.61 15.31 16.74 15.31 16.87C14.47 16.17 14.47 16.17 14.21 15.78Z" fill="#EAF389" fill-opacity="1.000000" fill-rule="nonzero"/>
		<path id="path" d="M26.25 3.12C26.4 3.12 26.55 3.12 26.71 3.12C26.71 3.33 26.71 3.54 26.71 3.75C26.56 3.75 26.4 3.75 26.25 3.75C26.25 3.54 26.25 3.33 26.25 3.12Z" fill="#376065" fill-opacity="1.000000" fill-rule="nonzero"/>
		<path id="path" d="M27.26 28.59C27.26 29.23 27.26 29.88 27.26 30.54C27.23 30.54 27.21 30.54 27.18 30.54C27.18 30.36 27.18 30.18 27.18 30C27.13 30 27.08 30 27.03 30C27.03 29.37 27.03 29.37 27.1 29.29C27.1 29.09 27.1 28.88 27.1 28.67C27.18 28.59 27.18 28.59 27.26 28.59Z" fill="#0D201D" fill-opacity="1.000000" fill-rule="nonzero"/>
		<path id="path" d="M10.78 14.84C11.01 14.92 11.01 14.92 11.01 15.07C11.06 15.1 11.11 15.12 11.17 15.15C10.96 15.23 10.75 15.31 10.54 15.39C10.54 15.26 10.54 15.13 10.54 15C10.41 14.97 10.28 14.94 10.15 14.92C10.28 14.65 10.51 14.8 10.78 14.84Z" fill="#8B2B22" fill-opacity="1.000000" fill-rule="nonzero"/>
		<path id="path" d="M15.15 13.28C15.85 13.35 15.85 13.35 16.01 13.51C15.93 13.51 15.86 13.51 15.78 13.51C15.81 13.55 15.85 13.6 15.89 13.64C15.94 13.7 15.99 13.75 16.04 13.81C16.09 13.86 16.14 13.92 16.19 13.98C16.32 14.14 16.32 14.14 16.48 14.37C16.17 14.22 16 14.05 15.76 13.8C15.58 13.62 15.37 13.49 15.15 13.35C15.15 13.33 15.15 13.3 15.15 13.28Z" fill="#656E86" fill-opacity="1.000000" fill-rule="nonzero"/>
		<path id="path" d="M35.85 29.6C35.39 29.71 34.93 29.81 34.45 29.92C34.45 29.87 34.45 29.81 34.45 29.76C34.72 29.72 34.72 29.72 35 29.68C35 29.61 35 29.53 35 29.45C35.58 29.33 35.58 29.33 35.85 29.6Z" fill="#DFB254" fill-opacity="1.000000" fill-rule="nonzero"/>
		<path id="path" d="M19.37 18.67C19.76 18.82 19.76 18.82 20.07 19.53C19.59 19.65 19.64 19.38 19.45 18.98C19.42 18.88 19.4 18.77 19.37 18.67Z" fill="#EA6545" fill-opacity="1.000000" fill-rule="nonzero"/>
		<path id="path" d="M10 15.85C10 16.25 10 16.25 9.6 16.4C9.53 16.56 9.45 16.71 9.37 16.87C9 17.09 9 17.09 8.82 17.18C8.97 16.89 9.11 16.71 9.33 16.47C9.39 16.41 9.45 16.34 9.51 16.27C9.9 15.85 9.9 15.85 10 15.85Z" fill="#20111B" fill-opacity="1.000000" fill-rule="nonzero"/>
		<path id="path" d="M6.09 14.84C6.19 14.86 6.3 14.89 6.4 14.92C6.29 15.24 6.12 15.49 5.93 15.78C5.88 15.9 5.82 16.03 5.78 16.17C5.75 16.17 5.72 16.17 5.7 16.17C5.78 15.46 5.78 15.46 6.17 15C6.14 14.94 6.12 14.89 6.09 14.84Z" fill="#3C4945" fill-opacity="1.000000" fill-rule="nonzero"/>
		<path id="path" d="M15.78 13.51C16.15 13.5 16.44 13.53 16.79 13.67C16.69 13.69 16.59 13.72 16.48 13.75C16.48 13.8 16.48 13.85 16.48 13.9C16.09 13.98 16.09 13.98 15.78 13.67C15.78 13.62 15.78 13.56 15.78 13.51Z" fill="#4379A5" fill-opacity="1.000000" fill-rule="nonzero"/>
		<path id="path" d="M11.95 24.21C11.95 24.29 11.95 24.29 11.59 24.36C11.28 24.42 10.99 24.5 10.7 24.6C10.52 24.58 10.34 24.55 10.15 24.53C10.15 24.47 10.15 24.42 10.15 24.37C11.38 24.19 11.38 24.19 11.95 24.21Z" fill="#3F3723" fill-opacity="1.000000" fill-rule="nonzero"/>
		<path id="path" d="M5.39 17.03C5.04 18.82 5.04 18.82 4.92 18.82C4.92 18.63 4.93 18.43 4.94 18.23C4.95 18.12 4.95 18.01 4.96 17.9C5.06 17.03 5.06 17.03 5.39 17.03Z" fill="#5D4E3E" fill-opacity="1.000000" fill-rule="nonzero"/>
		<path id="path" d="M15.31 12.18C15.31 12.21 15.31 12.23 15.31 12.26C15.2 12.26 15.1 12.27 15 12.27C14.86 12.28 14.73 12.28 14.59 12.29C14.52 12.29 14.45 12.29 14.39 12.3C14.04 12.31 13.74 12.34 13.43 12.5C13.24 12.42 13.24 12.42 13.04 12.34C13.72 12 14.55 12.18 15.31 12.18Z" fill="#F1DDA0" fill-opacity="1.000000" fill-rule="nonzero"/>
		<path id="path" d="M28.28 2.5C28.43 2.5 28.59 2.5 28.75 2.5C28.75 2.96 28.75 2.96 28.59 3.04C28.59 2.96 28.59 2.89 28.59 2.81C28.54 2.81 28.49 2.81 28.43 2.81C28.43 2.86 28.43 2.91 28.43 2.96C28.33 2.96 28.23 2.96 28.12 2.96C28.12 2.86 28.12 2.76 28.12 2.65C28.17 2.65 28.22 2.65 28.28 2.65C28.28 2.6 28.28 2.55 28.28 2.5Z" fill="#376165" fill-opacity="1.000000" fill-rule="nonzero"/>
		<path id="path" d="M21.56 13.51C22.02 13.46 22.32 13.63 22.73 13.82C22.73 13.87 22.73 13.93 22.73 13.98C22.83 14.03 22.94 14.08 23.04 14.14C22.72 14.08 22.43 13.98 22.12 13.86C22.03 13.82 21.94 13.79 21.84 13.75C21.64 13.67 21.64 13.67 21.56 13.51Z" fill="#27483B" fill-opacity="1.000000" fill-rule="nonzero"/>
		<path id="path" d="M18.2 23.67C18.43 23.98 18.43 23.98 18.51 24.29C18.59 24.32 18.67 24.34 18.75 24.37C18.75 24.58 18.75 24.78 18.75 25C18.41 24.88 18.46 24.75 18.35 24.42C18.31 24.29 18.31 24.29 18.27 24.15C18.2 23.9 18.2 23.9 18.2 23.67Z" fill="#3BBD7A" fill-opacity="1.000000" fill-rule="nonzero"/>
		<path id="path" d="M27.34 16.48C27.81 16.56 27.81 16.56 28.51 17.1C28.35 17.26 28.35 17.26 27.34 16.56C27.34 16.53 27.34 16.51 27.34 16.48Z" fill="#162B24" fill-opacity="1.000000" fill-rule="nonzero"/>
		<path id="path" d="M13.67 12.57C15.15 13.2 15.15 13.2 15.23 13.43C15.15 13.47 15.15 13.47 15.07 13.51C15.07 13.46 15.07 13.41 15.07 13.35C14.96 13.32 14.84 13.29 14.72 13.26C13.67 12.95 13.67 12.95 13.67 12.57Z" fill="#DF8672" fill-opacity="1.000000" fill-rule="nonzero"/>
		<path id="path" d="M27.1 27.26C27.47 27.44 27.35 28.15 27.34 28.5C27.34 28.62 27.34 28.74 27.34 28.86C27.34 28.95 27.34 29.04 27.34 29.14C27.26 29.14 27.26 29.14 27.22 28.93C27.17 28.45 27.18 27.98 27.18 27.5C27.13 27.5 27.08 27.5 27.03 27.5C27.05 27.42 27.08 27.34 27.1 27.26Z" fill="#1C2110" fill-opacity="1.000000" fill-rule="nonzero"/>
		<path id="path" d="M30.46 26.79C30.57 26.82 30.67 26.84 30.78 26.87C30.7 27.65 30.7 27.65 30.46 27.81C30.46 27.47 30.46 27.14 30.46 26.79Z" fill="#12191E" fill-opacity="1.000000" fill-rule="nonzero"/>
		<path id="path" d="M22.03 25.54C22.03 25.98 22.03 26.42 22.03 26.87C22 26.87 21.97 26.87 21.95 26.87C21.95 26.51 21.95 26.15 21.95 25.78C21.59 25.8 21.23 25.83 20.85 25.85C21.09 25.7 21.22 25.66 21.48 25.61C21.55 25.6 21.62 25.58 21.69 25.57C21.87 25.54 21.87 25.54 22.03 25.54Z" fill="#F0C35B" fill-opacity="1.000000" fill-rule="nonzero"/>
		<path id="path" d="M14.06 14.21C14.91 14.42 14.91 14.42 15 15C14.33 14.5 14.33 14.5 14.06 14.21Z" fill="#EF673E" fill-opacity="1.000000" fill-rule="nonzero"/>
		<path id="path" d="M1.87 2.5C1.92 2.5 1.97 2.5 2.03 2.5C2.03 2.55 2.03 2.6 2.03 2.65C2.08 2.65 2.13 2.65 2.18 2.65C2.18 2.6 2.18 2.55 2.18 2.5C2.34 2.5 2.34 2.5 2.42 2.73C2.18 3.12 2.18 3.12 1.87 3.12C1.87 2.91 1.87 2.71 1.87 2.5Z" fill="#376164" fill-opacity="1.000000" fill-rule="nonzero"/>
		<path id="path" d="M34.06 24.76C34.37 25.23 34.3 25.76 34.06 26.25C34 25.74 33.95 25.27 34.06 24.76Z" fill="#EBE089" fill-opacity="1.000000" fill-rule="nonzero"/>
		<path id="path" d="M4.84 18.28C5.44 18.58 4.84 19.63 4.76 20.31C4.73 20.31 4.71 20.31 4.68 20.31C4.68 18.98 4.68 18.98 4.76 18.9C4.79 18.7 4.81 18.49 4.84 18.28Z" fill="#464C43" fill-opacity="1.000000" fill-rule="nonzero"/>
	</g>
</svg>
